<?xml version="1.0" encoding="UTF-8" standalone="no"?><!DOCTYPE svg PUBLIC "-//W3C//DTD SVG 1.1//EN" "http://www.w3.org/Graphics/SVG/1.1/DTD/svg11.dtd"><svg width="100%" height="100%" viewBox="0 0 88 129" version="1.1" xmlns="http://www.w3.org/2000/svg" xmlns:xlink="http://www.w3.org/1999/xlink" xml:space="preserve" xmlns:serif="http://www.serif.com/" style="fill-rule:evenodd;clip-rule:evenodd;stroke-linejoin:round;stroke-miterlimit:2;"><path d="M4.205,40.495c0.907,0.429 1.531,4.851 0.75,4.499c-2.039,0.118 -1.212,-3.062 -0.75,-4.499" style="fill:#fff;"/><path d="M51.449,57.743c-0.6,-0.962 -6.104,-3.108 -4.499,-1.5c1.493,0.756 3.202,1.296 3.749,3c-1.916,0.807 -2.624,-3.229 -3.749,-0.75c2.737,1.263 3.424,4.575 5.249,6.749c0.881,-1.988 -1.438,-4.416 0,-4.5c0.364,0.886 0.8,1.701 1.5,2.25c0.86,-3.109 -1.578,-2.922 -1.5,-5.249c1.988,0.761 2.032,3.467 3.749,4.499c0.204,-4.364 -6.966,-8.813 -7.498,-7.499c1.114,0.886 3.35,0.648 2.999,3m-18.748,-9.75c-0.99,0.009 -0.684,1.315 -1.499,1.5c-0.042,-0.789 -0.961,-0.589 -0.75,0.75c2.354,0.37 1.982,-2.584 3.749,-0.75c1.005,-3.134 -4.682,-6.288 -3.749,-4.499c1.097,0.652 2.377,1.123 2.249,2.999m29.997,0.75c1.784,0.336 3.726,-1.827 4.5,2.25c4.137,-7.815 -13.145,-8.123 -4.5,-6.749c0.083,1.417 2.479,0.521 2.25,2.25c0.229,1.73 -2.167,0.833 -2.25,2.249m-19.497,-5.999c-0.033,1.033 0.353,1.647 0.749,2.25c-0.581,0.168 -1.479,0.02 -1.499,0.75c2.801,0.068 2.137,0.841 4.499,0c0.546,-2.047 -1.49,-1.51 -1.5,-3c0.814,-0.179 1.8,-1.235 0.75,-1.499c-0.493,1.006 -1.604,1.396 -2.999,1.499m-0,-21.747c2.6,-0.247 5.667,-7.84 1.499,-5.999c2.554,1.476 -4.694,8.527 -1.499,5.999m-3.75,-3.749c-1.76,-3.322 4.462,-4.749 0.75,-5.249c-0.126,1.436 -4.878,4.332 -0.75,5.249m9.749,-8.249c0.002,-0.753 -0.608,-0.893 -0.75,-1.5c2.388,-0.022 1.139,-2.919 0.75,-5.25c-2.738,0.012 -3.368,2.133 -5.25,3c0.868,2.382 0.397,6.103 3.75,6c2.108,-0.142 2.052,-2.448 3.749,-3c-0.032,0.797 0.353,1.905 0.75,0.75c-0.158,-0.842 -0.832,-1.168 -1.5,-1.5c-0.158,0.841 -0.832,1.167 -1.499,1.5m-8.999,26.247c1.447,2.376 0.966,-0.269 -0.75,-1.5c0.966,-1.034 3.258,-0.742 5.249,-0.75c-0.582,-0.668 -0.806,-1.694 -0.75,-3c-3.557,1.231 -14.843,0.811 -22.497,1.5c2.327,-3.922 9.205,-3.294 14.998,-3.75c-7.476,-3.006 -14.373,-0.206 -20.247,2.25c4.713,-1.806 8.487,-13.076 14.248,-6.749c-0.118,-10.909 0.428,-16.814 0.75,-22.497c7.856,-0.393 17.35,0.852 23.997,-0.75c-1.527,8.511 -0.865,17.126 -3,23.997c4.322,-0.322 7.148,0.851 10.499,1.499c-1.314,2.219 -3.996,-0.432 -6,0c-0.762,0.488 -0.774,1.725 -2.249,1.5c3.579,1.311 10.099,0.606 11.249,2.25c-4.153,1.972 -12.246,1.563 -19.498,0.75c-1.793,0.44 1.816,1.575 2.25,2.25c-0.233,1.017 -1.878,0.622 -3,0.75c0.917,1.083 2.862,1.137 3.75,2.25c1.387,-0.113 0.46,-2.54 1.499,-3c7.958,0.387 15.373,-0.176 20.998,1.5c-2.222,-0.663 0.727,3.25 1.499,0.75c-0.644,0.605 -0.445,2.053 -1.499,2.249c0.218,1.123 3.965,-0.462 4.499,-1.499c0.93,3.941 -7.808,4.264 -11.998,2.249c0.543,1.878 -4.038,1.544 -6.75,2.25c3.52,3.442 10.134,-0.2 11.999,2.25c-0.607,-0.143 -0.748,-0.753 -1.5,-0.75c3.096,7.568 1.364,15.458 1.5,25.496c1.364,-5.635 1.584,-12.414 1.5,-19.497c-0.449,-2.755 0.556,-10.273 0.75,-3.75c-0.36,8.889 1.061,19.56 -1.5,26.247c-0.879,-0.121 -0.633,-1.367 -0.75,-2.25c-1.015,7.484 -6.776,10.223 -15.748,9.749c0.093,1.656 3.181,0.318 4.499,0.75c0.173,11.505 -1.422,27.261 -2.25,32.996c1.121,2.473 0.885,-2.509 3,-1.5c0.864,0.886 0.849,2.65 0.75,4.499c-2.356,-0.013 -4.184,2.477 -5.999,0.75c-1.127,1.216 -1.127,5.534 0,6.749c3.681,0.681 2.857,-3.142 5.999,-3c12.162,8.44 -11.484,14.062 -14.998,5.25c1.441,-2.808 3.194,-5.304 7.499,-5.25c1.196,-4.695 -3.065,-3.933 -2.25,-8.248c2.656,-0.251 1.844,-2.063 4.5,-0.75l0,-5.999c-1.075,0.924 -1.421,2.579 -1.5,4.499c0.257,-9.363 0.012,-18.359 -0.75,-29.246c-3.76,-1.74 -10.741,-0.258 -15.748,-0.75c-1.965,8.054 -3.781,19.89 -1.5,27.747c-0.863,2.426 -0.849,-2.014 -0.75,-3c-1.21,2.064 -1.791,5.203 -0.75,7.499c0.903,-0.847 1.359,-2.141 3.75,-1.5c2.726,3.273 -1.416,4.69 -1.5,7.499c-0.261,3.011 3.522,1.978 4.5,3.749l-0,5.25c-3.568,3.717 -13.047,3.933 -16.498,-0l-0,-4.5c2.502,0.003 2.56,-2.439 5.249,-2.25c1.961,0.539 2.552,2.448 4.499,3c2.904,-1.931 0.463,-3.656 0.75,-6.749c-4.79,0.674 -8.448,-1.673 -6.749,-5.249c2.656,-1.313 1.844,0.499 4.5,0.75c-0.529,-4.652 -4.546,-24.26 -1.5,-32.246c-15.144,-0.561 -11.266,-14.326 -10.498,-26.247c-1.527,0.724 -1.62,2.88 -1.5,5.25c-1.656,-1.11 -0.319,-11.669 -0.75,-16.498c-3.599,7.774 -0.118,20.985 0.75,29.246c-6.076,-7.672 -0.153,-27.343 -7.5,-33.745c5.889,-3.861 16.783,-2.715 25.497,-3.75c-0.136,1.636 0.614,2.386 2.25,2.25c-1.272,0.727 -1.926,2.073 -1.5,4.499c2.07,-0.18 2.289,-2.211 3,-3.749" style="fill:#231f20;"/><path d="M4.955,54.743c-3.114,0.103 -0.152,0.493 -0,1.5c-2.646,0.418 2.646,2.256 -0,0.75c0.605,-3.498 0.328,-4.762 0.75,-11.249l-2.25,0c1.472,2.814 -0.708,1.635 -1.499,3.749c2.022,2.236 1.168,3.942 2.999,5.25m-0,-9.749c0.781,0.352 0.157,-4.069 -0.75,-4.499c-0.462,1.437 -1.289,4.617 0.75,4.499m-0,23.997c-2.951,-0.451 0.19,5.19 -2.999,4.499c0.468,1.781 4.615,-0.116 5.249,1.5c-1.67,2.244 -1.365,6.918 -0.75,7.5c-0.178,2.082 -3.075,0.687 -5.249,2.249c2.334,-4.94 -1.554,-13.865 -0.75,-14.998c-1.051,-0.265 -0.065,-1.321 0.75,-1.5c-0.051,-9.215 -2.508,-15.933 1.499,-26.246c-2.46,-4.93 1.984,-8.855 6.749,-8.999c-0.151,1.006 -3.114,1.396 0,1.5c-2.638,1.215 -1.548,2.273 -3.749,4.499c2.587,9.161 1.132,22.364 1.5,33.745c-2.047,-0.067 -1.51,1.25 -3,0c0.17,-1.08 2.238,-0.261 2.25,-1.499c0.413,-1.663 -1.432,-1.068 -1.5,-2.25" style="fill:#231f20;"/><path d="M78.446,33.745c1.129,-2.033 3.235,1.194 4.499,1.5c-1.389,1.446 -1.374,0.592 -0.75,3c-0.208,1.371 -0.855,-4.112 -3.749,-4.5" style="fill:#231f20;"/><path d="M46.2,41.245c1.05,0.264 0.064,1.32 -0.75,1.499c0.01,1.49 2.047,0.954 1.5,3c-2.362,0.841 -1.698,0.067 -4.499,-0c0.02,-0.73 0.918,-0.582 1.499,-0.75c-0.396,-0.603 -0.782,-1.217 -0.749,-2.25c1.395,-0.103 2.506,-0.493 2.999,-1.499" style="fill:#fff;"/><path d="M82.945,69.741c-1.488,-1.729 0.189,-0.833 0.75,-2.25c-3.771,3.441 0.132,3.504 -2.25,8.999c0.419,1.563 2.256,-1.113 0.75,1.5c0.636,1.114 2.415,1.085 3.75,1.5c1.029,1.709 -1.933,2.819 -0,3c0.707,1.386 -4.293,0.459 -1.5,1.499c-0.682,2.036 -2.628,-0.764 -3.75,-0.75c2.879,-1.261 1.086,-5.774 -0.75,-6.749c0.544,-8.136 0.96,-21.055 0.75,-32.246c4.754,1.222 0.954,-2.609 3.75,-2.249l0,5.249l-2.25,0c1.391,6.75 5.336,18.606 0.75,22.497" style="fill:#231f20;"/><path d="M85.195,70.491c-0.668,-0.475 1.745,-4.211 0.75,-7.499c0.492,-10.452 0.282,0.643 1.5,3.749c-0.582,0.668 -0.807,1.694 -0.75,3c-0.872,-0.122 -1.335,0.166 -1.5,0.75" style="fill:#231f20;"/><path d="M64.948,46.494c0.229,-1.73 -2.167,-0.833 -2.25,-2.25c-8.645,-1.374 8.637,-1.066 4.5,6.749c-0.774,-4.077 -2.716,-1.914 -4.5,-2.25c0.083,-1.417 2.479,-0.52 2.25,-2.249" style="fill:#fff;"/><path d="M30.452,44.994c-0.933,-1.79 4.754,1.365 3.749,4.499c-1.767,-1.834 -1.395,1.12 -3.749,0.75c-0.211,-1.339 0.708,-1.539 0.75,-0.75c0.815,-0.185 0.509,-1.491 1.499,-1.5c0.128,-1.876 -1.152,-2.347 -2.249,-2.999" style="fill:#fff;"/><path d="M1.956,49.493c0.791,-2.114 2.971,-0.935 1.499,-3.749l2.25,-0c-0.422,6.487 -0.145,7.751 -0.75,11.248c2.646,1.506 -2.646,-0.331 -0,-0.75c-0.152,-1.006 -3.114,-1.396 -0,-1.5c-1.831,-1.307 -0.977,-3.013 -2.999,-5.249" style="fill:#fff;"/><path d="M48.45,54.743c0.532,-1.314 7.703,3.135 7.498,7.499c-1.717,-1.032 -1.761,-3.738 -3.749,-4.499c-0.077,2.327 2.36,2.14 1.5,5.249c-0.7,-0.549 -1.136,-1.364 -1.5,-2.25c-1.438,0.084 0.881,2.512 0,4.5c-1.825,-2.174 -2.512,-5.486 -5.249,-6.749c1.125,-2.479 1.833,1.557 3.749,0.75c-0.546,-1.704 -2.256,-2.244 -3.749,-3c-1.605,-1.608 3.899,0.538 4.499,1.5c0.351,-2.352 -1.885,-2.114 -2.999,-3" style="fill:#fff;"/></svg>