<?xml version="1.0" encoding="UTF-8" standalone="no"?><!DOCTYPE svg PUBLIC "-//W3C//DTD SVG 1.1//EN" "http://www.w3.org/Graphics/SVG/1.1/DTD/svg11.dtd"><svg width="100%" height="100%" viewBox="0 0 98 136" version="1.1" xmlns="http://www.w3.org/2000/svg" xmlns:xlink="http://www.w3.org/1999/xlink" xml:space="preserve" xmlns:serif="http://www.serif.com/" style="fill-rule:evenodd;clip-rule:evenodd;stroke-linejoin:round;stroke-miterlimit:2;"><path d="M18.748,32.267c2.945,-0.121 -0.543,4.468 -0,6.749c-2.256,-1.044 -0.667,-4.53 -0,-6.749" style="fill:#fff;"/><path d="M57.743,42.016c2.308,0.525 1.441,0.525 3.75,-0c0.369,2.37 -3.722,0.278 -3,3c-1.018,-0.233 -0.623,-1.878 -0.75,-3" style="fill:#fff;"/><path d="M53.243,118.506c2.52,-0.769 1.168,2.332 1.5,3.749c-1.941,-0.963 -2.356,-1.55 -1.5,-3.749" style="fill:#fff;"/><path d="M62.992,121.506c6.68,4.389 -6.544,8.252 -11.249,4.499c2.53,-1.521 9.575,1.703 11.999,-1.5c-0.924,-2.277 -2.579,0.813 -4.5,0c0.178,-2.073 4.232,-0.268 3.75,-2.999" style="fill:#fff;"/><path d="M45.744,131.255c-0.852,1.844 -4.573,3.3 -5.999,2.25c1.416,-1.334 3.028,-2.472 5.999,-2.25" style="fill:#fff;"/><path d="M39.745,133.505c1.426,1.05 5.147,-0.406 5.999,-2.25c-2.971,-0.222 -4.583,0.916 -5.999,2.25m19.498,-9c1.92,0.813 3.574,-2.277 4.499,0c-2.424,3.203 -9.469,-0.021 -11.998,1.5c4.704,3.753 17.928,-0.11 11.248,-4.499c0.482,2.731 -3.572,0.926 -3.749,2.999m-0.75,-79.49c-0.722,-2.721 3.37,-0.63 2.999,-2.999c-2.308,0.525 -1.441,0.525 -3.749,-0c0.127,1.122 -0.268,2.767 0.75,2.999m30.746,-6.748c-1.832,-0.419 -1.598,-2.903 -4.5,-2.25c-0.823,2.633 4.467,2.952 4.5,2.25m-44.245,-26.997c0.041,-1.29 -0.577,-1.923 -1.5,-2.25c-0.514,2.514 1.259,2.742 3,3c2.144,-0.675 1.568,-6.252 -0.75,-3.75c1.557,0.753 2.056,3.316 -0.75,3m9.749,110.985c-0.332,-1.417 1.02,-4.518 -1.499,-3.749c-0.858,2.199 -0.443,2.786 1.499,3.749m20.248,-88.488c1.626,-0.126 0.339,2.659 0.75,3.75c2.315,-3.291 -3.429,-13.651 3.749,-13.499c0.055,3.194 1.255,5.245 0.75,8.999c0.81,-2.44 3.523,-2.976 6.749,-3c0.863,-0.886 0.849,-2.651 0.75,-4.499l3.749,0c-2.236,6.486 4.048,4.451 6,6.749c0.456,3.456 -3.324,2.675 -4.5,4.5c-1.965,6.336 -0.735,14.108 0,20.247c1.284,10.718 -3.253,15.474 -3.749,26.247l-3,-0c0.323,1.677 3.695,0.303 5.249,0.75c-0.043,3.456 -0.346,6.652 -1.5,8.998c-2.957,0.458 -0.882,-4.117 -1.499,-5.999c-0.094,-1.656 -3.181,-0.318 -4.5,-0.75c-2.131,-0.131 0.907,4.906 -2.249,3.75c1.307,-9.341 1.258,-18.344 -1.5,-26.997c2.957,-3.239 4.372,-13.305 4.499,-21.747c-0.11,-1.64 -1.889,-1.61 -3.749,-1.5c-1.733,3.017 0.055,9.554 -2.25,11.998c-5.3,0.302 -1.469,-8.529 -3.749,-11.248c-2.794,1.09 -7.29,-1.195 -10.499,0.75c1.775,23.023 -4.2,53.389 -3.75,80.989c1.942,-0.963 2.357,-1.55 1.5,-3.749c5.144,1.036 5.633,7.509 4.499,12.749c-3.954,4.41 -14.542,3.452 -18.747,-0c-2.304,3.753 -9.166,5.905 -14.998,3.749c0.327,-0.922 0.959,-1.54 2.249,-1.499c-0.635,-1.115 -2.414,-1.086 -3.749,-1.5c0.847,-0.903 2.14,-1.36 1.5,-3.75c6.97,0.278 12.348,1.371 13.498,-5.25c2.037,-0.536 -0.537,3.537 1.5,3c2.763,-3.843 1.302,-7.26 6.749,-8.249c0.4,-11.599 -0.861,-24.859 0.75,-35.245c-3.76,-1.74 -10.741,-0.258 -15.748,-0.75c-0.181,11.182 0.851,27.642 1.5,40.494c0.265,1.176 1.32,-0.656 1.5,0.75c-2.6,2.553 -0.934,0.181 -1.5,4.5c-4.845,0.846 -5.437,-2.563 -8.249,-3.75c0.55,-1.335 1.363,-0.108 2.249,0c-1.189,-19.872 -3.194,-42.711 -5.999,-58.492c0.094,-1.656 3.181,-0.319 4.5,-0.75c-0.696,-1.804 -5.453,0.454 -4.5,-2.999l3,-0c-0.113,-1.388 -2.54,-0.461 -3,-1.5c1.634,-2.362 2.364,-0.961 0.75,-3.75l2.25,0c-0.328,-0.923 -0.959,-1.54 -2.25,-1.5c0.328,-0.922 0.96,-1.54 2.25,-1.5c-0.113,-1.386 -2.54,-0.46 -3,-1.5c0.084,-1.916 2.512,-1.488 4.5,-1.499c0.126,-1.627 -2.66,-0.34 -3.75,-0.75l-0,-5.999c2.311,-0.561 0.914,2.585 3.75,1.499c1.441,-2.971 2.86,-5.437 0.749,-8.248c3.956,3.816 7.215,4.841 13.499,5.249c0.909,-2.98 -5.01,-0.308 -2.25,-3c-1.401,0.598 -2.746,1.253 -4.499,1.5c2.022,-2.111 -1.33,-3.077 -0.75,-5.999c-2.286,0.916 1.096,2.862 -0.75,3.75c-2.839,-0.825 -0.188,-5.83 0.75,-7.5c-0.323,-1.677 -3.696,-0.303 -5.25,-0.75c-1.214,1.785 -1.481,4.518 -2.999,6c-3.017,-1.416 -2.226,-6.754 -0.75,-8.999c2.936,0.319 8.926,-1.133 13.498,-1.5c-1.97,-6.529 -9.369,-7.629 -10.499,-14.998c7.072,-25.227 38.901,1.601 14.999,11.248l-0,3c2.639,3.11 11.582,-0.084 14.248,2.999c-4.633,2.713 -10.305,1.31 -16.498,2.25c0.798,1.702 4.714,0.285 6.75,0.75c-1.124,2.127 -1.564,4.935 -2.25,7.5c-2.292,-0.543 -2.733,0.766 -4.5,0.749c0.836,1.913 5.8,-0.301 6.75,1.5c1.638,-0.11 1.609,-1.889 1.499,-3.749c1.635,-0.193 7.42,-1.247 7.499,2.249c3.695,-2.432 0.497,-3.744 0.75,-8.249c0.451,6.319 7.39,6.367 11.249,3" style="fill:#231f20;"/><path d="M45.744,8.27c2.318,-2.502 2.894,3.074 0.75,3.75c-1.741,-0.259 -3.514,-0.485 -3,-3c0.923,0.328 1.541,0.959 1.5,2.25c2.806,0.316 2.307,-2.246 0.75,-3" style="fill:#fff;"/><path d="M18.748,39.016c-0.543,-2.282 2.945,-6.871 -0,-6.749c-0.667,2.219 -2.256,5.704 -0,6.749m-9,38.245c-2.129,-0.369 -1.079,-3.919 -4.499,-3c-0.019,-3.83 1.954,-6.309 -2.25,-6.748c2.041,0.391 5.66,-2.182 8.249,-0.75c0.054,-3.731 -2.205,-0.492 -3.749,-2.25l0,-4.499c-6.998,-2.604 -1.607,-11.763 -3.75,-20.998c1.11,-0.39 1.89,-1.109 3,-1.5c-0.702,-2.025 -3.381,-1.344 -0.75,-2.999c-0.559,-1.692 -4.206,-0.294 -5.999,-0.75l0,-3c4,-0.425 6.566,1.741 9.749,-0c0.126,-1.626 -2.66,-0.34 -3.75,-0.75c1.807,-2.083 1.942,-2.417 1.5,-6.749c2.209,1.791 0.416,7.583 5.249,6.749c1.718,-1.282 1.773,-4.226 2.25,-6.749c6.276,-1.513 6.414,7.066 5.25,10.499c1.647,2.541 6.949,1.046 8.248,0.75c2.268,1.134 -0.622,3.291 0,5.249l-6.748,-0c-1.626,2.374 -1.131,6.869 -2.25,9.749l-4.5,0c-0.747,-3.502 -1.858,-6.641 -1.5,-11.249c-4.899,0.067 -2.41,14.904 0,17.248c-0.873,2.127 -3.138,2.861 -2.25,6.75c0.963,1.287 2.994,1.506 3.75,2.999c0.351,2.35 -1.886,2.113 -3,2.999c1.335,3.179 3.02,4.371 0,6.749c1.188,0.063 2.861,-0.36 3,0.75c2.112,0.903 -4.713,-0.849 -5.25,1.5" style="fill:#231f20;"/><path d="M84.739,36.016c2.902,-0.651 2.668,1.832 4.5,2.25c-0.033,0.703 -5.324,0.384 -4.5,-2.25" style="fill:#fff;"/><path d="M13.498,78.011c-0.198,2.21 2.676,6.352 0.75,10.499c-2.28,-1.808 -1.578,-5.897 -6,-3.75c0.323,3.072 -0.694,4.805 -1.499,6.75c-3.199,-3.507 -1.473,-8.856 0,-11.999c2.528,-0.221 5.123,-0.376 6.749,-1.5" style="fill:#231f20;"/></svg>