<?xml version="1.0" encoding="UTF-8" standalone="no"?><!DOCTYPE svg PUBLIC "-//W3C//DTD SVG 1.1//EN" "http://www.w3.org/Graphics/SVG/1.1/DTD/svg11.dtd"><svg width="100%" height="100%" viewBox="0 0 103 138" version="1.1" xmlns="http://www.w3.org/2000/svg" xmlns:xlink="http://www.w3.org/1999/xlink" xml:space="preserve" xmlns:serif="http://www.serif.com/" style="fill-rule:evenodd;clip-rule:evenodd;stroke-linejoin:round;stroke-miterlimit:2;"><path d="M47.244,4.568c1.961,-0.212 3.226,0.274 2.999,2.25c-1.282,0.157 -1.942,-1.28 -2.249,-0c-0.879,-0.122 -0.633,-1.368 -0.75,-2.25" style="fill:#fff;"/><path d="M50.243,21.816c1.641,0.11 1.611,1.889 1.5,3.749c-2.596,0.526 -2.689,-2.629 -1.5,-3.749" style="fill:#fff;"/><path d="M43.494,23.315c0.232,-1.017 1.878,-0.622 3,-0.75l-0,2.25c-2.359,0.859 -1.823,-1.177 -3,-1.5" style="fill:#fff;"/><path d="M47.244,36.064c1.992,0.007 4.282,-0.284 5.249,0.75c-0.036,2.263 -6.125,2.325 -5.249,-0.75" style="fill:#fff;"/><path d="M39.745,38.314c1.098,0.652 2.376,1.122 2.25,3c-2.827,-0.577 -3.585,0.914 -6,0.75c0.336,-2.165 3.227,-1.773 3.75,-3.75" style="fill:#fff;"/><path d="M11.998,39.064c1.428,1.405 1.884,0.081 3.75,-0c-0.685,1.314 -1.394,2.605 -3.75,2.25l0,-2.25Z" style="fill:#231f20;"/><path d="M29.996,42.063l4.499,0c-1.17,1.079 -2.61,1.889 -2.999,3.749c-1.64,-0.11 -1.61,-1.889 -1.5,-3.749" style="fill:#fff;"/><path d="M35.995,43.563l0,2.25c-1.567,0.317 -1.985,-0.515 -3,-0.75c0.181,-1.319 1.291,-1.709 3,-1.5" style="fill:#fff;"/><path d="M60.743,43.563l4.499,-0c-0.136,2.115 -3.565,0.935 -3,3.75c-1.112,-0.638 -1.612,-1.888 -1.499,-3.75" style="fill:#fff;"/><path d="M11.998,45.063l4.5,-0c-0.165,1.546 -5.325,4.182 -4.5,-0" style="fill:#231f20;"/><path d="M48.744,72.059c1.816,0.434 1.667,2.832 2.249,4.5c-2.686,0.436 -2.28,-2.22 -2.249,-4.5" style="fill:#fff;"/><path d="M25.497,87.057c0.947,1.053 3.956,0.043 2.999,3c-1.807,0.307 -1.63,-1.37 -3.749,-0.75c0.396,-0.603 0.782,-1.218 0.75,-2.25" style="fill:#fff;"/><path d="M32.995,126.803c2.523,0.894 3.83,3.834 2.25,6.749c-1.044,-1.956 -2.751,-3.248 -2.25,-6.749" style="fill:#fff;"/><path d="M35.245,133.552c1.58,-2.915 0.273,-5.855 -2.25,-6.749c-0.501,3.501 1.206,4.793 2.25,6.749m-10.498,-44.245c2.119,-0.619 1.942,1.058 3.749,0.75c0.957,-2.957 -2.052,-1.947 -2.999,-3c0.032,1.033 -0.354,1.647 -0.75,2.25m22.497,26.247c-0.003,0.416 0.607,0.851 0.75,0c-0.997,-0.754 -2.791,-0.709 -3,-2.25c1.292,-1.457 3.076,-2.423 2.25,-5.999c-1.709,0.209 -2.819,-0.18 -3,-1.5c3.055,-1.597 1.905,-14.99 -0,-18.748c0.181,-1.318 1.291,-1.708 3,-1.499l-0,-3.75c-5.502,-0.389 -7.247,-0.389 -12.749,-0l0,4.5c2.148,-0.148 4.093,-0.094 3.75,2.249c-0.18,1.319 -1.29,1.71 -3,1.5l0,15.748c1.86,-0.11 3.64,-0.14 3.75,1.5c-1.281,0.955 -2.801,2.239 -5.25,3.75c2.958,-0.458 0.883,4.117 1.5,5.998c1.397,0.104 2.507,0.494 3,1.5c-3.026,0.828 -1.436,2.387 -2.25,6c3.997,-1.012 4.869,1.577 8.249,1.5c3.723,-4.189 2.759,-5.968 3,-10.499m3.749,-38.995c-0.582,-1.668 -0.433,-4.067 -2.249,-4.5c-0.031,2.28 -0.437,4.936 2.249,4.5m11.249,-29.247c-0.565,-2.814 2.864,-1.635 3,-3.749l-4.5,0c-0.112,1.862 0.387,3.112 1.5,3.749m-29.247,-2.249c1.015,0.236 1.433,1.067 3,0.749l0,-2.249c-1.709,-0.21 -2.819,0.18 -3,1.5m-1.499,0.749c0.389,-1.86 1.828,-2.67 2.999,-3.749l-4.499,0c-0.11,1.86 -0.14,3.639 1.5,3.749m4.499,-3.749c2.415,0.165 3.173,-1.326 6,-0.75c0.126,-1.876 -1.152,-2.347 -2.25,-2.999c-0.523,1.976 -3.414,1.585 -3.75,3.749m16.498,-5.249c-0.967,-1.034 -3.257,-0.743 -5.249,-0.75c-0.876,3.075 5.213,3.013 5.249,0.75m-5.999,-11.999l-0,-2.25c-1.122,0.128 -2.768,-0.267 -3,0.75c1.177,0.323 0.642,2.359 3,1.5m5.249,0.75c0.111,-1.86 0.14,-3.639 -1.5,-3.749c-1.189,1.12 -1.096,4.275 1.5,3.749m-3.749,-18.747c0.307,-1.279 0.967,0.157 2.249,-0c0.227,-1.977 -1.038,-2.462 -2.999,-2.25c0.117,0.882 -0.129,2.128 0.75,2.25m2.999,-4.5c2.77,2.23 2.876,7.124 7.499,7.5c0.174,6.326 1.563,11.434 1.5,17.997c-1.166,1.084 -2.922,1.577 -4.5,2.25c3.811,1.689 10.098,0.9 14.249,2.25l-0,5.999c8.429,4.819 15.755,10.741 18.748,20.997c-4.803,-7.196 -9.584,-14.414 -17.998,-17.998c-0.762,0.488 -0.776,1.724 -2.25,1.5c-0.536,1.216 3.536,1.216 3,0c-2.165,5.157 0.219,19.88 -0,29.996c-5.148,1.078 -9.59,0.987 -15.749,1.5l0,5.25c2.25,0.089 4.644,1.628 7.5,2.999c-1.301,5.494 -4.272,-0.66 -7.5,-0c-1.395,3.395 2.697,1.304 3,3c0.351,2.35 -1.885,2.113 -3,2.999c1.527,4.532 -0.181,15.253 3,15.749c-1.291,0.708 -1.227,2.771 -3.749,2.249c0.023,3.976 2.518,5.481 3.749,8.249c-4.248,-2.836 0.719,1.497 -4.499,0.75c0.302,1.448 3.434,0.065 2.249,2.999c4.988,0.632 5.837,5.503 6,9c-2.428,4.077 -14.476,3.948 -18.748,1.499c-0.203,3.109 0.985,2.922 -0,5.25c-4.455,3.143 -20.247,5.066 -21.747,-0c-1.154,0.396 -0.048,0.782 0.75,0.749c-0.665,1.57 -4.187,-0.241 -3.749,-2.249c4.676,3.512 -0.621,-4.198 2.249,-5.999c1.673,0.11 -0.973,1.889 -0,3.749c4.402,0.591 5.122,-3.141 5.999,1.5c1.007,-0.494 1.397,-1.604 1.5,-3c-1.777,-2.117 -4.541,-5.667 -1.5,-7.499c-0.682,-1.317 -2.627,-1.371 -3.749,-2.25c0.903,-2.846 4.363,-3.136 2.999,-8.248l5.25,-0c-0.233,-1.019 -1.878,-0.623 -3,-0.75c-1.853,-1.184 4.421,-0.52 5.249,-1.5c-1.452,-1.736 -4.568,1.175 -6.749,-0.75c-1.017,0.232 -0.622,1.878 -0.75,3c-1.987,-0.012 -4.415,0.416 -4.499,-1.5c0.091,-2.643 1.091,-0.206 3,-1.5c-2.259,-5.24 1.712,-16.711 -3.75,-18.748c1.162,-0.838 1.562,-2.437 3.75,-2.25l-0,-5.249c-9.902,-4.096 -19.669,-8.328 -24.747,-17.248c3.418,0.32 4.279,4.097 6.749,5.999c7.515,5.79 28.273,12.116 41.245,6c-11.67,-2.83 -26.821,2.282 -35.246,-6c-0.425,-6.324 1.191,-14.688 -2.25,-17.997c-0.127,-2.128 2.537,-1.464 1.5,-4.5c0.83,1.67 1.323,3.678 3.75,3.75c-0.652,2.181 -1.123,0.843 -3,0.75c1.311,6.688 -0.174,16.173 5.25,18.747c1.988,-8.068 -0.42,-21.825 -0,-32.995c-5.817,-2.305 -13.192,0.297 -14.999,4.499c0.876,-4.909 8.641,-8.923 14.999,-7.499c0.814,-0.185 0.508,-1.491 1.5,-1.499c0.439,-1.705 -3.546,-4.371 -1.5,-3c1.557,-0.84 1.588,-0.809 0.75,0.75c1.839,-0.66 4.324,-0.675 4.499,-3c1.825,0.471 0.397,3.789 -1.5,3c3.319,-0.525 3.057,5.55 3,10.498c1.246,-2.771 1.246,-10.727 -0,-13.498c1.252,-1.445 6.915,-0.959 8.248,-0c5.127,-4.683 -4.032,-25.28 6.75,-28.497c3.303,-0.554 3.072,2.427 5.249,3c-0.962,1.617 -2.993,-1.146 -3.749,1.5c1.153,1.809 4.395,0.365 4.499,1.5c1.597,-1.403 1.656,-4.344 5.249,-3.75" style="fill:#231f20;"/><path d="M44.244,126.053c-3.38,0.078 -4.252,-2.512 -8.249,-1.5c0.814,-3.613 -0.776,-5.172 2.25,-6c-0.493,-1.006 -1.603,-1.396 -3,-1.5c-0.617,-1.881 1.458,-6.456 -1.5,-5.998c2.449,-1.511 3.969,-2.795 5.25,-3.75c-0.111,-1.64 -1.89,-1.61 -3.75,-1.5l0,-15.748c1.71,0.21 2.82,-0.181 3,-1.5c0.343,-2.343 -1.602,-2.397 -3.75,-2.249l0,-4.5c5.502,-0.389 7.247,-0.389 12.749,-0l-0,3.75c-1.709,-0.209 -2.819,0.181 -3,1.499c1.905,3.758 3.055,17.151 -0,18.748c0.181,1.32 1.291,1.709 3,1.5c0.826,3.576 -0.958,4.542 -2.25,5.999c0.209,1.541 2.003,1.496 3,2.25c-0.143,0.851 -0.753,0.416 -0.75,0c-0.241,4.531 0.723,6.31 -3,10.499" style="fill:#fff;"/><path d="M83.99,60.811c5.583,-0.585 8.943,1.055 14.247,0.75c1.481,1.519 -0.403,6.403 3.75,5.249c1.797,6.796 -3.201,6.798 -3.75,11.248c-5.903,0.155 -9.403,-2.094 -15.747,-1.499c1.407,-4.657 -2.838,-3.663 -3,-6.749c-0.136,-2.876 0.613,-0.272 2.25,-0.75c1.102,-2.852 -3.353,-0.148 -2.25,-3c2.256,-0.993 5.301,-1.198 4.5,-5.249" style="fill:#231f20;"/></svg>