<?xml version="1.0" encoding="UTF-8" standalone="no"?><!DOCTYPE svg PUBLIC "-//W3C//DTD SVG 1.1//EN" "http://www.w3.org/Graphics/SVG/1.1/DTD/svg11.dtd"><svg width="100%" height="100%" viewBox="0 0 61 137" version="1.1" xmlns="http://www.w3.org/2000/svg" xmlns:xlink="http://www.w3.org/1999/xlink" xml:space="preserve" xmlns:serif="http://www.serif.com/" style="fill-rule:evenodd;clip-rule:evenodd;stroke-linejoin:round;stroke-miterlimit:2;"><path d="M22.497,112.772c-0.244,-1.806 0.64,-8.571 -0.75,-6.749c0.244,1.806 -0.64,8.572 0.75,6.749m23.997,-38.995c-0.841,-0.158 -1.168,-0.833 -1.5,-1.499c-1.73,1.518 -5.702,0.797 -6.749,2.999c3.64,-3.041 3.981,4.733 6.749,2.25c-3.086,-1.433 1.462,-0.353 0.75,-3.75c-0.002,0.417 0.608,0.852 0.75,-0m-11.249,-4.499c-1.877,-0.127 -2.347,1.152 -2.999,2.25c1.014,0.235 1.432,1.067 2.999,0.75c1.619,-0.678 0.384,-6.095 -0.75,-3.75c0.458,0.042 0.889,0.111 0.75,0.75m6.75,-0.75c0.239,-1.74 -0.121,-2.88 -0.75,-3.75c-1.917,1.487 -3.448,-0.777 -4.5,0.75c2.497,0.253 2.437,3.063 5.25,3m-9.749,-8.249c-1.468,0.824 -2.49,5.95 -0.75,7.499c-0.127,-1.014 3.813,-1.499 1.499,-2.25c-2.009,0.712 1.219,-3.926 -0.749,-5.249m0.749,-0.75c-0.087,-1.913 -0.141,-3.859 -2.249,-3.75c0.019,1.981 -0.7,4.699 2.249,3.75m7.5,-2.25c-0.711,2.601 -2.421,-0.484 -3.75,1.5c0.582,0.167 1.479,0.02 1.5,0.75l0,3.749l2.25,0c-0.051,-2.917 -0.306,-3.451 0.75,-6.749c-1.491,-0.01 -0.953,-2.046 -3,-1.499c-1.166,2.665 2.547,0.451 2.25,2.249m-3,21.747c0.544,-2.293 -1.294,-2.206 -0.75,-4.499c-4.519,-0.27 -6.729,1.769 -11.248,1.5c0.487,-3.451 -0.412,-4.349 -3,-3c-2.723,-11.596 1.622,-26.282 0.75,-35.995c-1.917,11.565 -3.262,27.383 -3.75,35.995c0.169,-0.582 0.021,-1.479 0.75,-1.499c-3.111,13.852 11.482,8.222 17.248,7.498m-10.498,-54.742c-0.66,-2.41 2.471,-1.028 2.249,-3c-1.339,0.003 -4.363,-2.02 -5.249,-0c1.321,0.678 1.239,2.76 3,3m-3.75,-5.25c3.778,-0.864 7,2.376 7.499,-1.5c-2.901,0.402 -3.661,-1.339 -6.749,-0.75c0.032,1.033 -0.353,1.647 -0.75,2.25m-1.5,-12.748c1.425,-2.426 5.607,0.685 8.249,-1.5c0.467,2.486 -7.918,2.565 -7.499,7.499c4.857,2.397 17.168,-2.011 20.248,5.999c-5.481,-1.48 -5.504,2.496 -9.75,2.25c4.886,0.114 2.446,7.554 3,11.998c-4.301,0.367 -4.291,3.078 -8.998,1.5c0.232,-1.018 1.877,-0.622 2.999,-0.75c-0.121,-0.878 -1.367,-0.632 -2.25,-0.75c0.233,-1.018 1.877,-0.622 3,-0.749c-0.55,-0.701 -1.363,-1.137 -2.25,-1.5c0.419,-2.081 2.58,-2.42 3,-4.499c-3.202,0.31 -6.003,7.485 -5.999,13.497c0.217,-1.185 4.551,-4.029 1.5,-3.749c5.702,-3.231 -1.29,8.608 2.999,11.249c1.435,-3.009 2.669,0.668 5.249,0.75c-2.415,-2.336 -5.9,-3.599 -5.249,-9c0.863,-2.426 0.848,2.014 0.75,3c1.786,-0.75 5.008,-3.941 7.499,-1.5c0.641,-1.359 1.932,-2.068 2.25,-3.749c0.206,4.786 -0.006,6.639 -3,9.749c1.431,1.532 3.256,1.505 5.25,0.75c-0.168,2.332 -3.732,1.266 -6,1.5c6.392,3.866 13.987,-4.599 9.749,-11.999c-1.113,0.326 0.296,0.959 -0,2.249c-2.404,-1.845 -3.281,-5.217 -7.499,-5.249c1.056,-1.113 2.394,-1.612 -0.75,-1.499c2.264,-0.988 -2.3,-4.832 -1.5,-8.999c3.888,-1.358 9.656,5.061 7.5,9.748c4.5,0.506 0.423,-3.212 0.749,-5.249c0.768,0.732 1.517,1.482 2.25,2.25c1.057,-1.64 0.442,-4.361 1.5,-5.999c-1.831,-1.419 -4.889,-1.611 -8.249,-1.5c-0.563,-3.766 3.047,1.281 2.25,-2.25c1.754,1.519 4.938,2.056 7.499,0.75c1.081,2.417 0.708,6.29 0.749,9.749c0.917,2.286 2.863,-1.097 3.75,0.75c-1.372,2.304 0.675,3.372 -0.75,5.249c3.467,-1.253 3.957,3.256 5.999,0c-0.276,2.973 0.687,7.187 -0.75,8.999c-1.08,-0.17 -0.261,-2.239 -1.5,-2.25c-4.021,1.647 -1.893,9.108 -2.999,13.498c1.502,0.827 2.778,0.335 5.249,1.5c-0.522,5.353 -2.727,10.88 -0.75,16.498l-2.25,-0c-1.378,5.905 5.521,9.746 0.75,14.248c-1.22,-1.224 1.23,-5.883 -1.499,-8.249c-3.158,-0.158 -1.144,4.856 -3,5.999c0.926,2.28 7.184,3.963 3,6.75c-0.166,-1.405 -1.474,-5.28 -4.5,-6c0.426,-3.214 5.232,-11.001 0,-12.748c1.511,-11.327 -0.259,-23.693 0.75,-39.745c-0.169,-1.081 -2.238,-0.262 -2.249,-1.5c-3.113,14.324 -1.346,35.729 0.749,47.994c-1.744,-1.016 -2.418,-3.821 -2.249,0.75l-8.999,0c-1.874,5.375 0.214,14.712 -1.5,20.247c2.942,-1.766 0.882,-0.378 4.5,0c-2.972,3.319 -1.191,10.565 0.75,13.499c-5.313,-0.874 -2.406,9.832 -3,11.248c1.045,1.205 3.701,0.799 4.499,2.25c0.387,7.955 -12.467,5.179 -17.248,3.749c-0.307,-1.806 1.37,-1.629 0.75,-3.749c1.645,-0.855 3.064,-1.935 5.999,-1.5c-0.32,-3.429 -1.14,-6.358 -0.75,-10.498c-0.635,-1.115 -2.414,-1.086 -3.749,-1.5c2.261,-3.13 1.099,-10.14 -0.75,-13.499c2.36,0.359 2.932,-1.068 4.499,-1.499c-0.665,-6.752 1.169,-12.997 0,-17.998c-4.431,-1.814 -8.709,1.349 -11.998,2.999l-0,15.749c0.592,0.75 2.623,-0.28 3.75,1.499c-1.85,1.875 -2.697,10.287 -0,11.999c0.525,2.775 -2.63,1.87 -3.75,3l-0,10.498c0.758,1.242 3.185,0.815 4.5,1.5l-0,4.499c-4.369,2.866 -12.758,2.661 -17.249,0c0.667,-1.333 2.094,-1.905 1.5,-4.499c1.707,-0.544 3.831,-0.669 5.25,-1.5c0.249,-5.749 0.716,-11.714 -3.75,-12.748c2.403,-2.518 1.925,-10.121 0,-12.749c4.82,1.215 5.477,-8.675 5.25,0c1.499,-6.402 -0.141,-11.972 0.75,-19.497c-1.871,-1.879 -6.08,-1.42 -9,-2.25l0,-45.744c-1.683,-1.566 -4.522,-1.976 -3.749,-5.999c-2.608,-0.359 -4.639,-0.14 -3.75,2.999c-1.048,0.017 -1.146,-7.33 -1.499,-10.498c1.6,0.35 1.428,-1.072 1.499,-2.25c1.31,0.69 1.655,2.344 1.5,4.5c1.25,-4 3.173,-7.327 5.999,-9.75c3.053,-0.053 3.228,2.772 3,6c0.235,-3.365 6.683,-9.795 9.749,-7.499c0.515,-3.384 -1.258,-1.72 -3,-1.5c0.918,-2.083 1.093,-4.906 3,-5.999c-4.674,-0.07 1.338,-8.393 4.5,-4.499c-2.336,0.912 -2.888,3.612 -4.5,5.249" style="fill:#231f20;"/><path d="M4.572,15.663c1.579,1.452 2.325,6.705 -0.75,6.748c0.031,-2.468 1.266,-3.733 0.75,-6.748" style="fill:#231f20;"/><path d="M43.567,19.412c2.394,-1.364 7.359,1.117 8.999,2.999c-2.789,0.989 -7.648,-1.913 -8.999,-2.999" style="fill:#231f20;"/><path d="M25.569,9.663c3.713,0.501 -2.509,1.928 -0.75,5.25c-4.128,-0.917 0.625,-3.813 0.75,-5.25" style="fill:#fff;"/><path d="M30.068,12.663c4.169,-1.841 1.101,5.751 -1.499,5.999c-3.195,2.528 4.054,-4.523 1.499,-5.999" style="fill:#fff;"/></svg>