<?xml version="1.0" encoding="UTF-8" standalone="no"?><!DOCTYPE svg PUBLIC "-//W3C//DTD SVG 1.1//EN" "http://www.w3.org/Graphics/SVG/1.1/DTD/svg11.dtd"><svg width="100%" height="100%" viewBox="0 0 79 124" version="1.1" xmlns="http://www.w3.org/2000/svg" xmlns:xlink="http://www.w3.org/1999/xlink" xml:space="preserve" xmlns:serif="http://www.serif.com/" style="fill-rule:evenodd;clip-rule:evenodd;stroke-linejoin:round;stroke-miterlimit:2;"><path d="M15.356,26.897l5.249,0c0.601,2.851 -3.546,0.954 -5.249,1.5l0,-1.5Z" style="fill:#231f20;"/><path d="M52.101,37.396c1.755,1.899 1.239,7.438 1.5,10.499c-2.14,-1.096 -1.174,-5.867 -1.5,-10.499" style="fill:#fff;"/><path d="M32.604,50.144c-0.332,0.668 -0.659,1.342 -1.5,1.5c0.332,0.668 0.658,1.341 1.5,1.5c-1.283,1.155 -2.729,-0.262 -5.249,0.75l-0,-3c2.601,0.602 2.882,-1.116 5.249,-0.75" style="fill:#fff;"/><path d="M27.355,61.393c2.316,-2.087 21.803,1.601 6.749,0.75c-1.664,-0.094 -3.822,-1.326 -6.749,-0.75" style="fill:#fff;"/><path d="M11.606,62.143c1.39,-1.823 0.507,4.943 0.75,6.749c-1.389,1.823 -0.506,-4.943 -0.75,-6.749" style="fill:#fff;"/><path d="M8.607,73.392c2.169,1.202 0.906,2.802 -0,4.5c-3.153,-0.988 0.003,-2.463 -0,-4.5" style="fill:#fff;"/><path d="M31.104,113.137c1.314,0.685 2.606,1.394 2.25,3.75l-3.75,-0c-0.115,-1.866 1.178,-2.322 1.5,-3.75" style="fill:#fff;"/><path d="M49.102,118.386c0.86,1.211 2.944,2.375 1.499,3.75c-2.595,0.525 -2.689,-2.629 -1.499,-3.75" style="fill:#fff;"/><path d="M27.355,14.149c2.259,-4.886 6.929,-12.503 13.498,-5.999c-1.419,1.625 -3.806,1.747 -2.25,4.499c0.767,-0.733 1.517,-1.483 2.25,-2.25c4.48,9.133 -6.936,16.512 -11.998,9.749c1.074,-4.551 15.654,0.83 11.248,-6.749c-4.072,-0.571 -5.812,1.187 -9.748,0.75c-1.627,-0.126 -0.341,2.66 -0.75,3.749c-1.53,-1.308 -1.471,0.559 -3,-0.749c2.082,-1.738 -2.007,-6.802 2.25,-8.999c1.731,-1.172 -2.412,3.158 -1.5,5.999" style="fill:#fff;"/><path d="M50.601,122.136c1.445,-1.375 -0.639,-2.54 -1.499,-3.75c-1.19,1.121 -1.096,4.275 1.499,3.75m-20.997,-5.25l3.75,0c0.356,-2.355 -0.936,-3.064 -2.25,-3.75c-0.321,1.428 -1.615,1.885 -1.5,3.75m-20.997,-38.995c0.906,-1.697 2.169,-3.298 -0,-4.499c0.003,2.037 -3.153,3.511 -0,4.499m3.75,-8.999c-0.244,-1.806 0.639,-8.571 -0.75,-6.749c0.243,1.806 -0.64,8.571 0.75,6.749m21.747,-6.749c15.054,0.851 -4.433,-2.836 -6.75,-0.75c2.928,-0.576 5.087,0.656 6.75,0.75m-6.75,-11.248l0,2.999c2.52,-1.012 3.967,0.405 5.25,-0.75c-0.841,-0.158 -1.167,-0.832 -1.5,-1.499c0.841,-0.159 1.168,-0.833 1.5,-1.5c-2.367,-0.368 -2.648,1.35 -5.25,0.75m20.248,-4.5c2.108,0.109 2.163,-1.837 2.25,-3.75l-3,0c-0.239,1.74 0.121,2.88 0.75,3.75m-3.75,-0.75c0.421,-2.172 1.17,1.15 2.25,0.75c-0.841,-2.362 -0.067,-1.698 0,-4.5c-1.538,-0.858 -3.574,1.178 -1.5,1.5c0.043,-0.457 0.113,-0.888 0.75,-0.75c1.01,2.117 -3.973,1.881 -1.5,3m9.749,2.25c-0.261,-3.061 0.255,-8.6 -1.5,-10.499c0.326,4.632 -0.64,9.403 1.5,10.499m-24.747,-39.745c-4.256,2.197 -0.167,7.261 -2.25,8.999c1.53,1.308 1.471,-0.559 3,0.749c0.411,-1.089 -0.876,-3.875 0.75,-3.749c3.937,0.438 5.678,-1.321 9.749,-0.75c4.405,7.58 -10.174,2.198 -11.249,6.749c5.063,6.763 16.479,-0.616 11.999,-9.748c-0.733,0.767 -1.483,1.517 -2.25,2.249c-1.556,-2.752 0.831,-2.873 2.25,-4.499c-6.569,-6.504 -11.238,1.113 -13.499,5.999c-0.91,-2.841 3.231,-7.17 1.5,-5.999m-1.5,29.996c2.359,0.859 1.823,-1.177 3,-1.5c1.713,2.68 -1.173,9.887 2.25,7.499l-1.5,0c1.826,-1.286 0.463,-4.139 3,-5.999c-0.037,4.07 -1.789,2.523 -0.75,6.749c2.154,-1.047 3.81,2.044 4.499,0c-3.413,-0.014 2.488,-3.735 -1.499,-3.749c-1.989,-0.239 0.701,4.201 -2.25,2.999c0.042,-3.232 1.226,-5.769 1.5,-6.749c2.036,-0.536 -0.537,3.536 1.499,3c1.837,-0.997 -0.824,-2.791 0.75,-3c2.194,-0.362 1.435,4.138 4.5,3c-0.943,-0.307 -1.533,-0.967 -1.5,-2.25c2.937,-1.542 1.915,1.895 3.749,-0.75c-0.355,2.356 0.935,3.065 2.25,3.75c-0.41,-1.09 0.877,-3.876 -0.75,-3.75c0.307,2.705 -1.369,1.028 -0.75,-0.75c-7.161,-0.298 -13.208,-4.012 -17.248,0c-4.646,-3.505 -10.422,-3.006 -14.997,0l-0,-2.999c5.929,-0.809 14.783,-0.739 23.247,-0c7.011,0.611 14.425,3.281 17.247,0.75c-14.253,-2.681 -28.199,-4.576 -41.994,-1.5c-0.393,10.89 -0.929,21.926 5.999,25.497c-2.375,-4.118 -9.317,-13.137 -3,-18.748c-2.441,4.626 0.826,13.53 4.5,11.999c-5.756,-2.478 -5.43,-16.102 2.249,-13.499c-3.018,0.731 -4.516,2.984 -5.249,5.999c4.775,0.204 5.043,0.788 8.249,3c-2.071,-2.048 -0.704,1.098 -2.25,1.5c-1.543,-1.488 -0.706,-1.488 -2.25,-0c-0.55,-1.259 -2.274,-5.145 -3.749,-3c2.59,8.856 13.823,0.848 8.999,-3c-0.493,1.007 -1.603,1.397 -3,1.5c2.27,-2.533 -3.63,0.587 -2.999,-3.749c3.958,-1.073 4.839,3.121 6.748,0c-2.08,-0.169 -2.121,-2.378 -3.749,-3c7.658,0.255 6.687,17.941 -1.5,14.249c8.313,4.93 10.372,-11.911 5.999,-14.999c0.585,0.166 0.873,0.629 0.75,1.5m18.748,-9.748c-2.731,0.231 -4.88,-0.12 -6.749,-0.75c8.895,3.057 17.563,1.63 27.747,0.75c0.764,0.984 0.735,2.763 1.499,3.749c1.714,-2.498 -2.036,-5.937 -0.75,-10.499c3.395,1.395 1.304,-2.696 3,-3c3.584,-0.334 3.289,3.211 5.999,3.75c-0.251,2.499 -2.172,3.327 -1.5,6.75c0.233,1.017 1.878,0.621 3,0.749c-4.057,14.69 -4.467,33.029 -5.249,50.994c0.468,2.53 2.661,3.338 2.999,5.999c-2.082,2.727 -3.269,4.806 -2.25,8.999c-2.208,0.541 -3.665,1.833 -4.499,3.75c-2.889,-0.111 0.274,-6.273 -4.499,-4.5c2.706,-16.041 4.162,-33.333 4.499,-51.744c-2.593,-0.594 -3.166,0.834 -4.499,1.5c0.543,10.292 -0.823,18.675 -0.75,28.497c-6.113,1.885 -7.128,8.87 -12.749,11.248c1.22,3.526 -2.343,14.106 -1.499,20.248c0.677,2.047 1.677,-2.282 2.999,-0c-0.717,6.217 0.433,10.566 3,13.498c-0.557,6.789 -15.49,5.585 -17.248,0.75c3.07,-2.988 1.586,-13.485 5.999,-12.749c-0.487,-0.762 -1.723,-0.775 -1.5,-2.249c1.928,-1.994 1.073,1.443 3,1.499c0.748,-3.247 -0.838,-4.161 -1.5,-5.998c5.555,-7.646 -4.497,-14.183 -2.249,-19.498c-5.126,-2.189 -8.512,-0.176 -7.499,2.249c0.113,0.272 -3.585,4.252 -3,2.25c-0.468,1.601 1.509,1.187 1.5,1.5c-0.096,3.525 -2.967,8.763 -1.5,14.248c0.747,0.139 2.027,3.286 2.25,1.5c0.91,4.339 0.945,9.554 3.749,11.998c-1.265,6.106 -14.282,5.703 -16.498,0.75c1.31,-3.939 4.282,-6.217 3,-12.748c2.552,3.071 1.67,-1.081 4.499,-1.5c-1.985,-10.131 -2.32,-16.222 -4.499,-23.997c-4.001,0.251 -6.566,-0.933 -9.749,-1.499c-0.832,4.851 -5.332,8.166 -2.249,12.748c-2.827,0.271 -6.134,2.882 -8.25,1.499c1.053,-3.614 2.755,-4.614 1.5,-8.998c-3.084,0.166 -1.632,4.866 -5.249,4.499c-2.031,-6.367 5.171,-11.908 6.749,-19.498c2.747,-13.211 0.302,-27.018 -3,-38.244c4.642,2.736 4.651,-1.387 3,-5.25c0.29,-0.39 3.642,-1.11 1.5,-1.5c0.305,-1.867 2.907,-0.044 2.25,1.5c1.797,0.297 -0.417,-3.416 2.25,-2.25c-0.255,1.505 0.153,2.347 1.499,2.25c-0.337,4.162 -3.159,5.84 -2.999,10.499c2.181,-0.652 0.843,-1.123 0.75,-2.999c6.686,0.817 14.299,-1.037 17.997,-0.75c-4.196,-4.075 -7.914,-6.978 -8.249,-13.499c-1.008,-19.671 29.187,-20.803 27.747,2.25c-2.152,2.846 -4.708,5.291 -3.75,11.249" style="fill:#231f20;"/><path d="M26.605,36.646c4.372,3.088 2.313,19.929 -6,14.999c8.187,3.692 9.158,-13.994 1.5,-14.249c1.629,0.622 1.669,2.831 3.75,3c-1.91,3.121 -2.791,-1.073 -6.75,0c-0.63,4.336 5.269,1.216 3,3.749c1.397,-0.103 2.506,-0.493 3,-1.5c4.824,3.848 -6.408,11.856 -8.999,3c1.475,-2.145 3.199,1.741 3.749,3c1.545,-1.488 0.706,-1.488 2.25,-0c1.546,-0.402 0.179,-3.548 2.25,-1.5c-3.206,-2.212 -3.474,-2.796 -8.249,-3c0.734,-3.015 2.231,-5.268 5.249,-5.999c-7.679,-2.603 -8.005,11.02 -2.25,13.499c-3.673,1.531 -6.94,-7.374 -4.499,-11.999c-6.316,5.61 0.625,14.629 2.999,18.748c-6.927,-3.572 -6.39,-14.607 -5.999,-25.498c13.796,-3.075 27.742,-1.18 41.996,1.5c-2.823,2.532 -10.237,-0.138 -17.248,-0.75c-8.465,-0.738 -17.318,-0.808 -23.248,0l0,3c4.576,-3.006 10.352,-3.505 14.999,0c4.039,-4.012 10.086,-0.298 17.247,0c-0.62,1.778 1.057,3.455 0.75,0.75c1.627,-0.126 0.34,2.66 0.75,3.75c-1.314,-0.686 -2.605,-1.394 -2.25,-3.75c-1.835,2.645 -0.812,-0.792 -3.749,0.75c-0.033,1.283 0.557,1.942 1.5,2.25c-3.066,1.138 -2.306,-3.362 -4.5,-3c-1.574,0.209 1.087,2.003 -0.75,3c-2.036,0.536 0.536,-3.536 -1.499,-3c-0.275,0.98 -1.458,3.516 -1.5,6.749c2.951,1.202 0.261,-3.238 2.25,-2.999c3.986,0.014 -1.914,3.735 1.499,3.749c-0.69,2.044 -2.344,-1.047 -4.499,0c-1.04,-4.226 0.712,-2.679 0.75,-6.749c-2.537,1.86 -1.174,4.713 -2.999,5.999l1.499,0c-3.422,2.388 -0.536,-4.819 -2.249,-7.499c-1.178,0.323 -0.642,2.359 -3,1.5c0.122,-0.872 -0.166,-1.334 -0.75,-1.5" style="fill:#fff;"/><path d="M45.352,42.645c-0.638,-0.138 -0.707,0.293 -0.75,0.75c-2.075,-0.322 -0.039,-2.358 1.5,-1.5c-0.067,2.802 -0.84,2.138 0,4.5c-1.08,0.4 -1.83,-2.922 -2.25,-0.75c-2.473,-1.12 2.509,-0.883 1.5,-3" style="fill:#fff;"/><path d="M46.852,42.645l3,0c-0.087,1.913 -0.141,3.859 -2.25,3.75c-0.629,-0.87 -0.989,-2.01 -0.75,-3.75" style="fill:#fff;"/></svg>