<?xml version="1.0" encoding="UTF-8" standalone="no"?><!DOCTYPE svg PUBLIC "-//W3C//DTD SVG 1.1//EN" "http://www.w3.org/Graphics/SVG/1.1/DTD/svg11.dtd"><svg width="100%" height="100%" viewBox="0 0 82 137" version="1.1" xmlns="http://www.w3.org/2000/svg" xmlns:xlink="http://www.w3.org/1999/xlink" xml:space="preserve" xmlns:serif="http://www.serif.com/" style="fill-rule:evenodd;clip-rule:evenodd;stroke-linejoin:round;stroke-miterlimit:2;"><path d="M39.746,16.036c-2.571,0.602 -5.573,0.868 -10.499,0.75c-1.34,0.211 -1.539,-0.709 -0.75,-0.75c1.686,-1.621 18.915,-0.64 11.249,0" style="fill:#fff;"/><path d="M16.498,48.282c1.39,-1.822 0.507,4.943 0.75,6.749c-1.39,1.822 -0.506,-4.943 -0.75,-6.749" style="fill:#fff;"/><path d="M18.748,47.532c1.109,0.39 1.89,1.109 3,1.5c-0.111,1.64 -1.89,1.61 -3.75,1.5c0.582,-0.667 0.806,-1.693 0.75,-3" style="fill:#fff;"/><path d="M29.247,54.281c-3.596,1.154 -4.622,4.877 -9.749,4.5c3.572,-2.217 5.607,-4.505 9.749,-4.5" style="fill:#fff;"/><path d="M36.746,60.28c2.154,3.441 3.123,0.045 8.249,3c-3.263,1.737 -9.74,0.259 -14.249,0.75c0.413,-3.438 6.992,2.07 6,-3.75" style="fill:#fff;"/><path d="M30.746,64.03c4.509,-0.491 10.986,0.988 14.249,-0.75c-5.126,-2.955 -6.095,0.442 -8.249,-3c0.992,5.82 -5.587,0.313 -6,3.75m-11.248,-5.249c5.127,0.377 6.153,-3.346 9.749,-4.5c-4.142,-0.005 -6.177,2.283 -9.749,4.5m-1.5,-8.25c1.86,0.111 3.639,0.14 3.75,-1.5c-1.11,-0.39 -1.891,-1.109 -3,-1.499c0.056,1.307 -0.168,2.333 -0.75,2.999m-0.749,4.5c-0.244,-1.806 0.639,-8.571 -0.75,-6.749c0.243,1.806 -0.641,8.571 0.75,6.749m1.499,-8.249c2.362,0.362 1.698,-2.302 4.499,-1.5c0.041,-1.402 -0.577,-1.588 -1.499,-0.75c-0.41,-1.09 0.876,-3.876 -0.75,-3.749c-1.693,4.117 0.457,2.249 -2.25,5.999m28.496,-2.25c2.474,0.136 7.229,-4.302 5.25,-3.749c-1.147,0.188 -4.701,0.88 -5.25,3.749m-11.248,11.249c-1.053,-2.222 -4.584,-2.412 -2.25,-6c-1.29,-0.295 -1.922,1.113 -2.25,0c3.921,-0.814 -0.123,-12.058 3,-5.249l0,-4.499l-3,-0c-1.022,1.876 -1.773,15.242 0.75,11.248c-0.993,1.304 -0.768,5.709 0.75,3.75c-1.851,-1.601 2.382,0.211 3,0.75m2.25,-6.75c4.689,-1.539 2.907,-8.761 2.25,-13.497l-3.75,-0c0.296,4.704 -0.987,10.986 1.5,13.497m-20.997,-2.999c0.432,-2.659 7.524,-12.853 8.248,-12.748c-3.881,3.117 -7.544,6.454 -8.248,12.748m43.494,0.75c0.481,3.018 -0.975,7.974 0.75,9.749c1.189,-12.171 -2.988,-19.737 -8.999,-23.997c-1.678,-1.19 -6.973,-3.355 -5.999,-2.25c7.314,2.934 11.721,8.777 14.248,16.498m-30.747,-15.748c0.882,-1.412 7.317,-1.125 6,-2.25c-2.465,-0.172 -7.179,1.262 -6,2.25m-1.499,-14.998c-0.789,0.041 -0.59,0.961 0.75,0.75c4.926,0.118 7.928,-0.147 10.499,-0.75c7.666,-0.641 -9.563,-1.621 -11.249,-0m-25.497,29.246c4.604,-0.997 -2.035,-16.863 3,-16.498c-1.058,-3.201 -5.707,0.597 -6,-2.25c0.477,-3.098 5.924,-2.382 8.249,-1.499c2.274,0.023 0.727,-3.773 3,-3.75c4.804,3.604 15.801,0.517 24.747,1.5c0.619,-2.119 -1.057,-1.942 -0.75,-3.749c-4.333,0.334 -7.684,-0.315 -11.249,-0.75c-0.133,-3.811 2.534,-0.164 3,-3c-0.324,0.088 -3.08,0.199 -6.749,-0l-0,-8.999c4.249,-1.417 6.339,-0.612 10.498,-1.5c1.566,-0.432 -1.08,-2.832 -0.75,-4.499c3.825,-1.481 3.498,3.164 2.25,4.499c10.661,0.244 17.643,-0.417 26.997,0.75c0.211,-1.211 -0.708,-1.29 -0.75,-2.25c2.464,-0.617 -0.093,8.097 0.75,12.749c-2.292,-2.821 -7.083,0.226 -11.999,-0.75c1.454,3.046 8.18,0.82 11.999,1.5c-0.606,5.921 -9.792,1.38 -13.498,2.25c-1.388,0.112 -0.461,2.539 -1.5,2.999c6.216,0.46 21.236,3.245 23.997,-2.25c2.255,-0.755 1.329,1.671 1.5,3c3.933,-1.522 7.315,-1.522 11.248,0c1.036,3.036 -1.628,2.372 -1.5,4.499c-1.568,-0.431 -2.139,-1.859 -4.499,-1.5c0.731,0.832 3.479,5.733 3.749,2.25c0.69,1.967 -0.471,8.508 0,12.749c-1.489,-1.25 -0.953,0.067 -2.999,-0c0.232,1.018 1.877,0.622 2.999,0.75c-1.101,1.768 -1.582,1.395 -0.75,3.749c-0.984,0.9 -1.179,0.293 -2.249,0c-0.351,1.601 1.071,1.429 2.249,1.5c-0.673,2.195 -0.673,2.304 0,4.499l-2.249,0c0.55,0.701 1.364,1.137 2.249,1.5c-0.327,0.923 -0.959,1.541 -2.249,1.5c0.121,0.879 1.367,0.633 2.249,0.75c-1.833,4.917 1.554,8.453 -2.249,10.499c-0.297,1.797 3.416,-0.416 2.249,2.25c-0.851,0.142 -0.415,0.751 0,0.75c-0.549,1.335 -1.363,0.108 -2.249,-0c3.843,3.341 1.678,11.584 1.499,15.748c-1.375,1.372 -5.276,-0.675 -3.749,0.75c-3.295,1.543 2.026,-12.558 -2.25,-14.249c4.285,-8.575 0.385,-17.369 2.25,-26.247c-0.885,-1.114 -0.649,-3.35 -3,-2.999c3.248,-0.21 3.759,-11.874 0,-11.999c-2.55,0.949 1.766,8.764 -2.999,7.499c0.481,15.229 -1.294,28.203 -0.75,43.495c-15.395,-6.066 -13.215,11.531 -10.499,19.497c0.399,5.649 -1.326,9.171 -0.75,14.999c2.153,1.597 6.566,0.932 6,5.249c-0.529,2.971 -4.417,2.582 -3,7.499c-4.011,1.488 -9.303,1.695 -14.248,2.25c1.824,-7.074 -3.653,-6.846 -3.749,-11.999c1.346,-2.153 4.403,-2.595 7.498,-2.999c-0.715,-12.714 1.643,-22.356 1.5,-34.496l-19.498,0c-0.474,13.638 1.419,20.457 0.75,33.746c1.782,1.219 4.544,1.456 6.75,2.25c0.132,5.881 -1.962,9.536 -3,14.248c-1.017,-0.233 -0.622,-1.878 -0.75,-3c-0.98,2.257 -7.086,-0.045 -11.248,0.75c-1.841,-2.409 -0.845,-7.654 -5.249,-7.499l-0,-3.75c1.356,-1.393 3.786,-1.712 5.998,-2.249l0,-15.748l3.75,0c0.222,-1.972 -2.909,-0.59 -2.25,-3c3.246,0.309 0.683,-11.179 1.5,-15.748c-4.218,2.534 2.964,9.034 -0.75,12.749c0.116,-0.117 -0.337,-11.504 -0.75,-11.999c-2.591,-3.111 -9.766,1.36 -13.498,-1.5c-1.173,-16.075 2.808,-37.305 -3,-48.744c-0.841,2.119 -2.386,11.365 1.5,11.249c-5.344,2.512 -1.819,10.774 -1.5,17.248c0.122,2.46 -1.101,6.963 -1.5,9.748c0.55,0.701 1.364,1.136 2.25,1.5c-4.595,3.376 2.304,14.994 -3.749,15.749c-1.374,-2.316 -1.374,-14.184 0,-16.499l-2.25,0c2.273,-0.937 2.526,-1.837 0,-2.999c0.327,-1.113 0.959,0.295 2.25,-0c0.797,-2.797 -2.812,-1.187 -2.25,-3.75c0.604,0.397 1.217,0.782 2.25,0.75c0.516,-2.016 -1.551,-1.45 -2.25,-2.25c0.327,-1.112 0.959,0.296 2.25,-0c0.797,-2.797 -2.812,-1.187 -2.25,-3.749c0.604,0.396 1.217,0.782 2.25,0.75c0.516,-2.017 -1.551,-1.45 -2.25,-2.25c0.121,-0.879 1.367,-0.633 2.25,-0.75c0.516,-2.016 -1.551,-1.449 -2.25,-2.25c2.543,-0.506 1.814,-1.072 0,-3.75c0.604,0.398 1.217,0.783 2.25,0.75c-0.39,-3.134 -3.578,-2.057 0,-3.749c-0.55,-0.7 -1.363,-1.136 -2.25,-1.5" style="fill:#231f20;"/><path d="M35.996,28.784c1.317,1.125 -5.118,0.838 -6,2.25c-1.179,-0.988 3.535,-2.422 6,-2.25" style="fill:#fff;"/><path d="M25.497,33.284c-0.725,-0.106 -7.817,10.089 -8.249,12.748c0.705,-6.294 4.368,-9.63 8.249,-12.748" style="fill:#fff;"/><path d="M36.746,35.534l3.75,-0c0.657,4.736 2.439,11.958 -2.25,13.498c-2.487,-2.512 -1.204,-8.794 -1.5,-13.498" style="fill:#fff;"/><path d="M32.996,55.031c-1.518,1.96 -1.743,-2.446 -0.75,-3.749c-2.523,3.993 -1.772,-9.374 -0.75,-11.249l3,-0l0,4.5c-3.124,-6.81 0.921,4.434 -3,5.249c0.328,1.113 0.959,-0.296 2.25,-0c-2.334,3.587 1.197,3.777 2.25,5.999c-0.618,-0.538 -4.851,-2.351 -3,-0.75" style="fill:#fff;"/><path d="M20.998,40.783c1.626,-0.126 0.339,2.659 0.75,3.75c0.922,-0.839 1.539,-0.653 1.499,0.75c-2.801,-0.803 -2.138,1.861 -4.499,1.499c2.707,-3.749 0.557,-1.882 2.25,-5.999" style="fill:#fff;"/><path d="M32.996,132.272l0,3.749c-2.898,0.197 -11.829,0.479 -15.747,-0.75l-0,-2.999c2.872,-0.405 10.56,0.278 15.747,-0" style="fill:#231f20;"/><path d="M58.493,133.772l-0,1.499c-2.369,3.381 -10.911,0.587 -15.748,1.5l-0,-3.749c2.585,0.116 12.081,-0.732 15.748,0.75" style="fill:#231f20;"/></svg>