<?xml version="1.0" encoding="UTF-8" standalone="no"?><!DOCTYPE svg PUBLIC "-//W3C//DTD SVG 1.1//EN" "http://www.w3.org/Graphics/SVG/1.1/DTD/svg11.dtd"><svg width="100%" height="100%" viewBox="0 0 84 118" version="1.1" xmlns="http://www.w3.org/2000/svg" xmlns:xlink="http://www.w3.org/1999/xlink" xml:space="preserve" xmlns:serif="http://www.serif.com/" style="fill-rule:evenodd;clip-rule:evenodd;stroke-linejoin:round;stroke-miterlimit:2;"><path d="M43.495,3.479c-0.8,-0.7 -0.234,-2.766 -2.25,-2.25c-0.056,1.306 0.168,2.332 0.75,3c1.53,0.643 4.132,-1.181 2.249,-1.5c-0.043,0.457 -0.111,0.888 -0.749,0.75m2.999,-1.5c-0.595,2.655 -2.772,3.727 -3.749,5.999c-5.735,-2.989 -1.064,-11.908 3.749,-5.999" style="fill:#231f20;"/><path d="M53.993,13.977c0.818,3.567 -6.24,-0.741 -4.499,3.75c-3.798,-1.377 -9.348,0.174 -13.498,0.75c2.157,-2.421 1.069,-4.113 -3,-3.75c-1.823,-1.389 4.944,-0.506 6.749,-0.75c-0.185,0.815 -1.491,0.51 -1.5,1.5c2.63,-1.011 7.132,-2.309 15.748,-1.5" style="fill:#231f20;"/><path d="M56.993,34.975c2.147,-0.148 4.092,-0.093 3.75,2.25c-1.982,-0.02 -4.7,0.699 -3.75,-2.25" style="fill:#fff;"/><path d="M30.746,49.223c1.215,-2.492 -3.117,-5.86 -4.499,-8.249c0.668,0.461 1.341,0.907 1.499,-0c1.542,-0.653 1.497,3.816 2.25,1.5c3.184,1.774 0.644,8.118 3,8.999c-2.205,3.953 -4.113,-2.683 -5.25,-4.5c0.999,0.752 2.264,1.237 3,2.25" style="fill:#fff;"/><path d="M7.499,42.474c1.535,-0.997 0.405,7.065 0.75,9.749c-1.535,0.996 -0.405,-7.065 -0.75,-9.749" style="fill:#fff;"/><path d="M50.993,88.218c1.331,-2 0.547,4.394 0.75,6c-1.329,2.001 -0.546,-4.394 -0.75,-6" style="fill:#fff;"/><path d="M35.996,108.466c-2.355,0.832 -1.982,0.351 -3.75,-0.75c0.066,-2.231 4.472,-2.006 3.75,0.75" style="fill:#fff;"/><path d="M44.244,2.729c1.883,0.319 -0.719,2.143 -2.249,1.5c-0.582,-0.668 -0.806,-1.694 -0.75,-3c2.016,-0.516 1.45,1.55 2.25,2.25c0.638,0.138 0.706,-0.293 0.749,-0.75" style="fill:#fff;"/><path d="M32.246,107.716c1.768,1.101 1.395,1.582 3.75,0.75c0.722,-2.756 -3.684,-2.981 -3.75,-0.75m19.497,-3c0.589,-8.432 -3.762,-2.6 0,-0m0,-10.499c-0.203,-1.605 0.582,-7.999 -0.75,-5.999c0.204,1.606 -0.579,8 0.75,5.999m-1.5,-27.746c-5.108,0.972 -8.993,0.535 -14.247,0c0.858,11.234 -1.79,22.111 0.75,30.746c0.009,-0.756 1.314,-0.943 1.499,0c-1.826,1.36 -0.87,2.522 -1.499,6c3.695,1.303 3.342,6.656 6.749,8.249c0.723,-5.579 5.34,-9.377 5.249,-13.499c-0.03,4.548 4.737,-3.589 2.249,-1.5c-2.43,-4.377 -0.006,-19.114 -0.75,-29.996m-5.999,-1.5c-4.265,0.991 -6.547,-3.916 -8.248,-2.999c2.033,1.241 4.866,5.599 8.248,2.999m4.5,-0.75c1.645,-1.63 4.658,-5.806 2.249,-8.998c1.53,4.803 -2.887,7.577 -2.249,8.998m-40.495,-11.998c-0.345,-2.683 0.785,-10.745 -0.75,-9.749c0.345,2.684 -0.785,10.745 0.75,9.749m19.497,-5.25c1.137,1.817 3.045,8.454 5.25,4.5c-2.356,-0.881 0.184,-7.226 -3,-8.999c-0.753,2.316 -0.708,-2.153 -2.25,-1.5c-0.158,0.907 -0.831,0.461 -1.499,0c1.382,2.388 5.714,5.757 4.499,8.249c-0.736,-1.013 -2.001,-1.498 -3,-2.25m32.997,-9.748c0.342,-2.343 -1.603,-2.398 -3.75,-2.25c-0.95,2.949 1.769,2.23 3.75,2.25m-22.498,2.25l3,-0c1.203,-3.842 3.173,-1.238 5.249,-0c1.112,-0.638 1.612,-1.888 1.5,-3.75c-2.837,-2.439 -11.261,-2.555 -9.749,3.75m35.995,29.246c1.545,0.206 0.707,2.793 2.25,2.999c-0.925,-3.462 0.937,-9.253 -2.25,-2.999m-8.248,-39.745l5.249,-0c0.389,-3.36 5.145,-2.355 5.249,-6c1.397,-0.717 2.507,2.247 3,0c1.738,0.762 1.599,3.401 3.75,3.75c-7.521,17.54 2.238,45.753 -7.5,56.993c0.2,-3.199 0.408,-6.407 -2.25,-6.749c1.436,-8.961 2.226,-26.388 0.75,-41.995c-3.46,0.274 -4.315,0.923 -7.498,-0c-1.766,6.248 0.341,21.471 -1.5,29.996c-4.361,-1.111 -4.175,2.324 -8.249,1.5c0.651,12.656 -1.114,21.309 -0.75,30.746c0.668,-0.332 1.341,-0.658 1.5,-1.5c1.785,2.844 -3.415,3.444 -4.5,0.75c1.974,2.557 2.937,3.704 3,6.75c2.426,0.926 0.573,-2.427 3,-1.5c-0.586,5.585 3.114,6.884 2.249,12.748c-4.622,4.001 -15.814,3.976 -18.747,-1.499c-3.199,5.791 -15.238,5.392 -20.248,1.499c1.505,-2.994 2.654,-6.344 3,-10.498c3.515,0.285 4.265,-1.317 5.999,0.749c-1.514,-3.646 1.424,-7.458 -2.25,-8.249c1.868,-1.632 -0.992,-7.991 2.25,-8.249c-3.924,1.175 -2.484,-22.662 -0.75,-15.748c1.236,-1.434 -0.483,-3.183 0.75,-5.249c-3.783,1.553 -5.502,-3.478 -11.248,-2.25c0.584,-7.222 -0.581,-22.104 -0,-29.246c-2.169,-1.166 -4.861,-0.05 -8.999,-0c1.185,13.417 -1.363,26.64 3.749,35.245c-4.413,5.836 -2.066,18.432 -9.749,20.998c0.196,-2.305 1.628,-3.373 2.25,-5.249c0.338,-1.225 -4.087,-1.225 -3.75,-0c-1.08,-0.17 -0.261,-2.238 -1.499,-2.25c0.836,-2.757 6.572,-2.969 7.499,-0.75c2.051,-0.682 -1.331,-2.628 0.75,-3.749c-0.18,-1.32 -1.29,-1.71 -3,-1.5c1.45,-5.2 -2.5,-4.999 -2.25,-8.999c1.74,-0.24 2.88,0.12 3.75,0.749c0.84,-5.838 -2.093,-7.136 0,-10.498c-0.121,-0.879 -1.367,-0.632 -2.25,-0.75c-1.237,-11.01 0.561,-25.058 -3.75,-32.996c2.583,0.582 3.582,-0.417 3,-3c3.704,-0.705 9.127,4.032 6,5.25c2.555,1.739 4.26,-0.306 7.499,0.75c1.702,-0.798 0.285,-4.714 0.75,-6.749c2.293,-0.544 2.205,1.294 4.499,0.749c1.946,-0.633 -1.443,-3.289 0.75,-4.499c2.4,0.099 3.299,1.7 2.999,4.499c3.412,-1.089 7.36,1.479 7.5,-3.749c2.464,1.79 13.767,6.923 13.498,0c1.249,-2.382 0.251,3.662 1.499,3.749l6,0c1.09,-2.058 1.221,-5.072 4.499,-2.999c0.316,3.719 -2.246,0.424 -2.999,2.25c0.808,1.94 6.221,-0.722 5.249,2.999c2.971,-0.231 -0.839,-2.604 2.25,-2.25c-1.032,2.271 0.357,2.679 -0,6" style="fill:#231f20;"/><path d="M3.749,86.719c6.854,-0.186 -2.321,1.013 0.75,2.999c-0.924,2.278 -2.578,-0.813 -4.499,-0c1.583,-2.052 3.608,-0.812 3.749,-2.999" style="fill:#231f20;"/><path d="M76.49,71.721c-1.544,-0.207 -0.705,-2.794 -2.25,-3c3.187,-6.254 1.325,-0.464 2.25,3" style="fill:#fff;"/><path d="M47.994,35.725c0.112,1.862 -0.388,3.112 -1.5,3.75c-2.077,-1.238 -4.047,-3.842 -5.249,-0l-3,-0c-1.512,-6.305 6.912,-6.189 9.749,-3.75" style="fill:#fff;"/><path d="M50.993,55.222c2.409,3.193 -0.604,7.37 -2.249,9c-0.638,-1.422 3.779,-4.196 2.249,-9" style="fill:#fff;"/><path d="M35.996,61.972c1.701,-0.918 3.983,3.99 8.248,3c-3.382,2.598 -6.215,-1.759 -8.248,-3" style="fill:#fff;"/><path d="M50.993,96.467c2.487,-2.089 -2.279,6.048 -2.249,1.5c0.091,4.122 -4.526,7.921 -5.249,13.499c-3.407,-1.592 -3.054,-6.946 -6.749,-8.249c0.629,-3.478 -0.328,-4.64 1.499,-6c-0.185,-0.943 -1.49,-0.756 -1.499,0c-2.54,-8.635 0.107,-19.512 -0.75,-30.746c5.254,0.535 9.138,0.972 14.247,0c0.744,10.882 -1.68,25.619 0.75,29.996" style="fill:#fff;"/><path d="M51.743,104.716c-3.762,-2.6 0.589,-8.432 0,0" style="fill:#fff;"/></svg>