<?xml version="1.0" encoding="UTF-8" standalone="no"?><!DOCTYPE svg PUBLIC "-//W3C//DTD SVG 1.1//EN" "http://www.w3.org/Graphics/SVG/1.1/DTD/svg11.dtd"><svg width="100%" height="100%" viewBox="0 0 96 126" version="1.1" xmlns="http://www.w3.org/2000/svg" xmlns:xlink="http://www.w3.org/1999/xlink" xml:space="preserve" xmlns:serif="http://www.serif.com/" style="fill-rule:evenodd;clip-rule:evenodd;stroke-linejoin:round;stroke-miterlimit:2;"><path d="M18.089,30.454l2.25,-0c0.629,0.87 0.989,2.01 0.749,3.749c-2.154,-0.095 -3.561,-0.938 -2.999,-3.749" style="fill:#fff;"/><path d="M36.837,55.201c2.046,0.067 1.509,-1.25 3,-0l-0,-3.75c-1.179,-0.072 -2.601,0.1 -2.25,-1.5c0.958,0.042 1.038,0.961 2.25,0.75c0.225,-1.977 -1.039,-2.461 -3,-2.25c-1.127,1.215 -1.127,5.534 -0,6.75m-6,-3c1.179,0.072 2.601,-0.101 2.25,1.5c-0.959,-0.042 -1.038,-0.962 -2.25,-0.75c-0.225,1.975 1.039,2.46 3,2.25c2.592,-4.165 -3.336,-4.314 0.75,-6.75l-3.75,0l0,3.75Zm-0.75,-5.25l10.5,0c-0.496,3.593 0.77,8.245 -0,9.749c-4.798,-0.333 -5.471,-0.131 -10.5,-0l0,-9.749Z" style="fill:#fff;"/><path d="M30.837,48.451l3.75,0c-4.086,2.436 1.841,2.585 -0.75,6.75c-1.961,0.21 -3.226,-0.275 -3,-2.25c1.211,-0.212 1.291,0.708 2.25,0.75c0.35,-1.601 -1.072,-1.428 -2.25,-1.5l0,-3.75Z" style="fill:#231f20;"/><path d="M57.084,49.951c0.605,-4.415 4.577,0.663 4.5,-2.25c-2.022,-1.728 -7.234,-0.266 -10.499,-0.75c0.481,3.018 -0.975,7.974 0.75,9.749c1.438,-2.561 9.5,1.501 9.749,-2.249c-0.686,-2.04 -1.394,1.997 -3.75,0.75c0.168,-1.419 -0.845,-1.656 -0.75,-3c1.29,-0.297 1.922,1.112 2.25,-0c-1.004,-2.466 0.216,-1.247 -2.25,-2.25m-26.997,6.749c5.029,-0.131 5.701,-0.333 10.499,-0c0.77,-1.504 -0.495,-6.156 0,-9.749l-10.499,0l-0,9.749Zm-8.999,-22.497c0.24,-1.739 -0.12,-2.879 -0.75,-3.749l-2.249,-0c-0.562,2.811 0.845,3.654 2.999,3.749m19.498,-25.497c0.227,3.931 3.187,0.467 4.499,3c0.307,-1.807 -1.369,-1.63 -0.75,-3.749c0.417,0.002 0.852,-0.609 0,-0.75c-0.635,1.113 -2.414,1.084 -3.749,1.499m-37.495,35.245c-0.393,3.118 -4.366,12.775 -0.75,17.998c-1.969,-12.674 4.161,-23.183 14.998,-25.496c-5.443,-1.432 -10.093,4.396 -14.248,6.749c3.105,-4.643 7.758,-7.739 14.248,-8.999c-0.065,-4.315 -0.162,-8.661 0.75,-11.999c3.14,1.36 6.188,2.811 8.249,5.25c1.017,-0.233 0.621,-1.878 0.75,-3c0.929,3.048 7.073,4.113 10.498,2.25c-1.231,-7.767 -0.61,-17.387 -0.75,-26.247c7.625,0.46 13.063,-1.733 17.248,0.75l-0,6c3.263,-3.798 -1.731,12.273 -0,18.747c1.256,2.193 9.569,2.634 8.999,-1.5c2.279,0.924 -0.813,2.579 0,4.5c2.293,-3.457 6.596,-4.903 8.999,-8.25c2.362,2.312 1.501,11.259 1.5,13.499c6.261,1.487 11.703,3.795 15.748,7.499c-1.527,-2.723 -3.867,-4.632 -6.749,-5.999c14.981,1.66 11.377,29.206 8.249,44.244c0.614,2.386 4.952,1.047 4.499,4.499c-1.707,0.544 -3.831,0.669 -5.249,1.5c0.509,2.741 1.046,5.453 0.75,8.999c-3.476,0.476 -1.9,-4.1 -2.25,-6.749c-2.046,-0.068 -1.51,1.249 -3,0c-1.66,0.589 0.143,4.643 -2.999,3.749c-1.2,-1.574 0.05,-5.502 1.5,-6.749c-0.459,-2.541 -4.796,-1.202 -4.5,-4.499c1.09,-1.16 3.839,-0.66 5.999,-0.75c0.755,-12.545 5.67,-29.468 0,-37.495c-2.668,-0.152 -6.282,-4.308 -11.248,-4.5c-2.139,3.111 -0.748,9.752 -3,12.749c-2.598,-2.401 -6.42,-3.578 -7.499,-7.499c-2.254,10.244 -1.297,23.7 -1.5,35.995c-0.967,1.033 -3.257,0.742 -5.249,0.75c-2.451,15.094 5.223,20.32 -0.75,30.746c2.44,1.091 2.347,7.682 4.5,12.749c-1.11,0.39 -1.891,1.11 -3,1.5c-1.601,0.35 -1.428,-1.071 -1.5,-2.25c-0.955,0.17 -0.983,2.238 -0,2.25c-2.798,2.014 -7.33,-0.645 -8.999,-2.25c2.452,-2.797 1.406,-9.093 4.5,-11.249c-3.267,-3.157 0.86,-11.713 -3,-12.748c5.148,-2.102 1.777,-12.721 3.75,-17.998c-2.517,-1.733 -8.237,-0.263 -11.999,-0.75c-3.382,5.179 2.839,17.404 -2.25,19.498c1.13,2.34 3.236,-2.205 4.499,-0c-3.108,9.586 -0.432,15.423 2.25,23.997c-0.605,0.645 -2.054,0.445 -2.25,1.5c-1.977,0.228 -1.933,-1.566 -2.249,-3c-2.557,0.312 1.134,4.112 -0.75,3.749l-1.5,-0c-3.145,0.276 -0.535,-2.443 -0.75,-3.749c-2.421,-0.671 -1.053,2.445 -2.249,3c-2.169,-0.331 -3.419,-1.581 -3.75,-3.75c6.252,-5.552 3.016,-16.496 1.5,-22.497c2.195,-0.196 2.304,1.695 4.499,1.5c-4.459,-2.79 -1.307,-13.191 -2.249,-19.498c-0.323,-1.676 -3.696,-0.304 -5.25,-0.75c-1.112,-11.387 -0.11,-24.887 -1.499,-35.996c-2.048,2.952 -5.398,4.602 -7.5,7.5c-3.873,-1.376 -2.256,-8.243 -3.749,-11.999c-18.287,2.853 -10.096,27.72 -7.499,41.995c0.032,2.717 5.323,0.175 4.499,3.749c-3.503,-1.612 -2.696,4.495 -2.999,9.749c-1.499,-1 -0.098,-4.902 -3.75,-3.75c-1.388,1.362 -0.974,4.525 -2.249,6c-2.375,-3.125 -0.32,-10.68 -4.5,-11.999c0.682,-1.317 2.628,-1.372 3.75,-2.249c-1.459,-4.791 -1.874,-10.625 -3,-15.749c1.007,0.494 1.397,1.604 1.5,3c1.569,-0.681 2.286,-2.213 2.25,-4.499c-1.303,1.862 -1.939,1.226 -0.75,-0.75c0.297,-1.455 -3.416,-1.096 -2.25,0.75c-3.351,-5.082 -3.108,-17.536 0.75,-21.748" style="fill:#231f20;"/><path d="M44.335,7.206c0.852,0.142 0.417,0.753 0,0.75c-0.619,2.12 1.057,1.943 0.75,3.75c-1.312,-2.533 -4.272,0.93 -4.499,-3c1.335,-0.415 3.114,-0.386 3.749,-1.5" style="fill:#fff;"/><path d="M52.585,54.451c0.651,-2.215 1.122,1.739 3,0.75c0.187,-1.442 1.166,-6.141 -1.5,-6.75c-0.268,1.782 -3.62,4.313 -1.5,6m6.749,-2.25c-0.328,1.112 -0.96,-0.297 -2.25,-0c-0.095,1.344 0.918,1.581 0.75,3c2.356,1.247 3.064,-2.79 3.75,-0.75c-0.249,3.75 -8.311,-0.312 -9.749,2.249c-1.725,-1.775 -0.269,-6.731 -0.75,-9.749c3.265,0.484 8.477,-0.978 10.499,0.75c0.077,2.913 -3.895,-2.165 -4.5,2.25c2.466,1.003 1.246,-0.216 2.25,2.25" style="fill:#fff;"/><path d="M54.084,48.451c2.667,0.609 1.688,5.308 1.5,6.75c-1.877,0.989 -2.347,-2.965 -3,-0.75c-2.119,-1.687 1.233,-4.218 1.5,-6" style="fill:#231f20;"/><path d="M36.837,48.451c1.961,-0.211 3.225,0.273 3,2.25c-1.212,0.211 -1.292,-0.708 -2.25,-0.75c-0.351,1.6 1.071,1.428 2.25,1.5l-0,3.75c-1.491,-1.25 -0.954,0.067 -3,-0c-1.127,-1.216 -1.127,-5.535 -0,-6.75" style="fill:#231f20;"/></svg>