<?xml version="1.0" encoding="UTF-8" standalone="no"?><!DOCTYPE svg PUBLIC "-//W3C//DTD SVG 1.1//EN" "http://www.w3.org/Graphics/SVG/1.1/DTD/svg11.dtd"><svg width="100%" height="100%" viewBox="0 0 72 126" version="1.1" xmlns="http://www.w3.org/2000/svg" xmlns:xlink="http://www.w3.org/1999/xlink" xml:space="preserve" xmlns:serif="http://www.serif.com/" style="fill-rule:evenodd;clip-rule:evenodd;stroke-linejoin:round;stroke-miterlimit:2;"><path d="M37.337,23.247c-3.489,0.672 -3.844,-3.974 0,-3l0,3Z" style="fill:#231f20;"/><path d="M44.087,45.745c4.671,-1.917 7.972,0.516 11.998,-0.75c-1.202,3.111 -9.475,1.225 -11.998,0.75" style="fill:#231f20;"/><path d="M44.087,50.244c4.362,0.386 10.341,-0.843 13.497,0.75l0,3.75c-3.156,1.593 -9.135,0.363 -13.497,0.749c0.666,-2.736 -1.326,-3.993 -0,-5.249" style="fill:#231f20;"/><path d="M44.087,74.241l13.497,0c-1.348,1.899 1.427,4.252 -1.499,5.249c-1.266,-3.661 -6.325,-2.333 -11.998,-1.499l-0,-3.75Z" style="fill:#231f20;"/><path d="M44.837,110.237c1.865,-0.116 2.321,1.178 3.749,1.5c-0.341,1.473 -5.261,1.347 -3.749,-1.5" style="fill:#fff;"/><path d="M37.337,110.986c0.343,2.343 -1.602,2.398 -3.75,2.25c0.686,-1.314 1.395,-2.605 3.75,-2.25" style="fill:#fff;"/><path d="M49.336,38.246c-6.697,-2.68 -0.189,-10.886 2.249,-10.499c-7.783,-1.492 -6.937,11.719 -2.249,10.499m-18.748,-36.746c-0.73,-0.02 -0.582,-0.918 -0.75,-1.5c5.413,4.336 9.596,9.903 14.999,14.249c3.186,-1.491 10.332,1.929 14.247,-1.501c1.755,1.562 -1.872,4.084 -2.999,5.25c1.92,2.329 4.319,4.181 5.249,7.499c2.273,-1.226 4.11,-2.89 6,-4.499c1.386,1.924 1.049,8.519 -0,10.498c-3.355,-0.907 2.525,-5.959 -2.25,-6.749c-1.677,0.323 -0.304,3.696 -0.75,5.249c-1.086,-0.913 -1.005,-2.994 -3,-2.999c-3.045,1.453 -0.82,8.179 -1.5,11.999l-4.499,-0.001c0.062,1.188 -0.361,2.861 0.75,3c-5.921,0.679 -14.613,4.002 -15.748,-1.5c2.127,-0.128 1.464,2.536 4.5,1.5c0.7,-0.549 1.136,-1.363 1.499,-2.25c-0.315,-1.684 -3.979,-0.02 -4.499,-1.5c0.093,-5.505 -0.738,-5.638 -0.75,-11.248c-4.45,-1.2 -1.549,4.95 -6,3.749c0.065,-1.063 0.124,-2.123 -0.75,-2.249c1.922,-1.218 2.171,-1.82 3,-5.25c5.636,1.386 2.51,-5.99 8.999,-3.749c-3.887,-7.362 -9.995,-12.502 -15.748,-17.998" style="fill:#231f20;"/><path d="M51.585,27.747c-2.438,-0.387 -8.946,7.82 -2.249,10.499c-4.688,1.221 -5.534,-11.991 2.249,-10.499" style="fill:#fff;"/><path d="M14.09,48.744c2.829,0.577 5.827,-0.051 9.749,0c0.229,-1.977 -1.565,-1.934 -2.999,-2.25c1.299,-2.103 1.965,-0.704 4.499,-0.75c-0.724,-1.526 -2.88,-1.619 -5.249,-1.5c-0.249,-2.747 0.832,-4.166 1.5,-5.999c0.886,0.864 2.65,0.849 4.499,0.75c-0.209,1.71 0.18,2.819 1.5,3c1.756,-0.244 0.728,-3.271 2.249,-3.75c7.136,3.169 -2.318,11.605 0.75,20.248c-2.32,0.07 -2.234,-2.264 -2.25,-4.499c-3.163,0.585 -2.386,5.113 -6.748,4.499c-1.605,-1.895 -1.043,-5.957 -2.25,-8.249c-5.413,-0.026 -8.925,5.385 -12.749,4.5c2.22,-1.799 7.617,-4.357 7.499,-6" style="fill:#231f20;"/><path d="M7.341,55.493c-2.743,3.546 -5.281,10.318 -2.999,16.499c-1.346,-0.095 -1.582,0.918 -3,0.749c0.635,2.198 2.414,-0.448 3.749,0c1.436,3.686 -2.492,2.007 -2.249,4.5c-1.817,-0.684 -1.986,-3.013 -2.25,-5.249c1.567,0.317 1.986,-0.515 3,-0.75c-0.113,-1.866 -2.54,-0.22 -3,-0c-1.885,-0.323 1.247,-1.616 2.25,-1.5c-0.298,-0.797 -1.091,-5.553 -0,-3.749c-1.824,-3.015 -3.552,1.232 -0.75,-1.5c1.184,-1.156 0.939,-7.645 5.249,-9" style="fill:#231f20;"/><path d="M9.591,80.99c0.238,2.23 2.707,3.303 8.998,4.5c0.351,-1.601 -1.071,-1.428 -2.249,-1.5c-1.105,-1.888 8.969,0.996 7.499,-3.75c1.46,2.539 1.878,6.12 3.75,8.25c-2.863,-0.614 -2.904,1.596 -3.75,2.999c-2.619,-7.889 -18.078,-2.816 -20.247,-12.749c2.352,1.282 3.188,1.817 2.249,-1.5c-1.283,-0.032 -1.943,0.558 -2.249,1.5c-2.472,-1.116 1.274,-2.116 1.499,-2.999c1.378,1.122 1.87,3.13 3.75,3.749c-0.328,1.113 -0.96,-0.296 -2.25,0c-0.926,2.427 2.426,0.573 1.5,3c0.667,-0.332 1.341,-0.658 1.5,-1.5" style="fill:#231f20;"/><path d="M38.837,41.245c-0.396,0.603 -0.783,1.218 -0.75,2.25c-1.662,0.413 -1.068,-1.432 -2.25,-1.5c-0.638,-0.138 -0.707,0.293 -0.75,0.75c-2.127,-0.994 1.926,-1.987 3.75,-1.5" style="fill:#231f20;"/><path d="M53.835,113.986c1.862,0.112 3.112,-0.388 3.749,-1.5c-1.119,-1.19 -4.275,-1.096 -3.749,1.5m-20.248,-0.75c2.148,0.148 4.093,0.094 3.75,-2.25c-2.355,-0.356 -3.064,0.936 -3.75,2.25m14.999,-1.5c-1.428,-0.321 -1.884,-1.615 -3.749,-1.499c-1.512,2.847 3.408,2.973 3.749,1.499m-16.498,7.5c1.33,2.169 3.494,3.505 5.999,4.499c-2.077,-4.087 -4.832,-4.813 -5.999,-11.249c0.257,-2.743 2.567,-3.431 4.499,-4.499l0,-28.497c2.856,0.645 4.969,2.031 8.999,1.5l-0,26.247c1.073,2.177 4.368,2.131 5.25,4.499c-0.014,4.163 -2.369,5.047 -0,8.249c1.654,-0.415 0.974,-4.344 2.999,-2.249c1.769,-1.099 -2.953,-1.987 -1.5,-5.25c0.467,-2.282 1.666,-3.833 4.5,-3.749l0,-27.747c4.167,0.668 5.558,-1.44 8.999,-1.5l-0,27.747c1.157,2.093 4.01,2.489 5.249,4.499c-1.11,4.357 -1.286,7.483 -1.5,11.249c-2.045,-0.546 -1.51,1.49 -2.999,1.5c-2.359,0.859 -1.823,-1.177 -3,-1.5c-2.171,4.85 -10.893,1.011 -11.999,-2.25c-5.131,3.458 -16.42,7.523 -19.497,-1.499" style="fill:#231f20;"/></svg>