<?xml version="1.0" encoding="UTF-8" standalone="no"?><!DOCTYPE svg PUBLIC "-//W3C//DTD SVG 1.1//EN" "http://www.w3.org/Graphics/SVG/1.1/DTD/svg11.dtd"><svg width="100%" height="100%" viewBox="0 0 86 160" version="1.1" xmlns="http://www.w3.org/2000/svg" xmlns:xlink="http://www.w3.org/1999/xlink" xml:space="preserve" xmlns:serif="http://www.serif.com/" style="fill-rule:evenodd;clip-rule:evenodd;stroke-linejoin:round;stroke-miterlimit:2;"><path d="M48.307,24.747c1.981,0.019 4.699,-0.7 3.75,2.25c-1.307,-0.694 -4.025,0.025 -3.75,-2.25" style="fill:#231f20;"/><path d="M49.057,39.745c-0.014,3.496 -3.736,3.496 -3.75,-0c0.985,-0.962 2.765,-0.962 3.75,-0" style="fill:#231f20;"/><path d="M82.802,54.743c0.441,3.715 -8.015,2.45 -9.748,1.5c0.514,-3.236 6.808,-0.69 9.748,-1.5" style="fill:#fff;"/><path d="M14.561,59.243c-1.181,3.078 -8.992,3.208 -11.248,-0c4.281,1.007 8.212,-2.253 11.248,-0" style="fill:#fff;"/><path d="M55.056,59.993c0.333,-1.238 5.666,-1.238 5.999,-0c-0.336,3.548 -4.985,0.547 -5.999,-0" style="fill:#fff;"/><path d="M46.807,62.243c1.283,-1.717 5.724,-0.276 8.249,-0.75c-1.283,1.716 -5.724,0.274 -8.249,0.75" style="fill:#fff;"/><path d="M46.057,0c2.187,1.063 -0.948,7.448 2.25,7.499c1.018,-0.232 0.622,-1.878 0.75,-3c1.033,-2.387 0.742,2.65 0.75,3.75c-1.567,-0.318 -1.986,0.514 -3,0.75c0.122,0.879 1.367,0.633 2.25,0.75c-0.834,2.416 -2.819,3.68 -4.5,5.25c0.388,-3.892 -1.532,-9.957 1.5,-14.999" style="fill:#231f20;"/><path d="M40.058,17.248c-0.989,2.743 5.578,5.674 0.75,6.749c0.469,1.781 4.615,-0.116 5.249,1.5c-1.436,1.313 -3.91,1.589 -5.999,2.249c1.647,1.113 4.803,1.437 -0,1.5c2.134,2.865 12.219,-2.22 11.998,3c-4.965,-2.985 -10.047,0.147 -15.747,0c-2.247,-5.923 -0.12,-12.81 3.749,-14.998" style="fill:#231f20;"/><path d="M14.561,91.489c-0.955,-7.045 -0.127,-15.871 -3,-20.998c1.115,6.885 1.113,14.886 3,20.998m35.996,-23.248c-0.111,1.453 3.72,4.563 5.249,0.75c-0.943,-0.306 -1.533,-0.966 -1.5,-2.249c-1.86,-0.111 -3.639,-0.14 -3.749,1.499m4.499,-6.748c-2.525,0.475 -6.965,-0.967 -8.249,0.75c2.525,-0.476 6.966,0.966 8.249,-0.75m5.999,-1.5c-0.333,-1.238 -5.665,-1.238 -5.999,-0c1.014,0.547 5.662,3.548 5.999,-0m-57.742,-0.75c2.256,3.208 10.067,3.078 11.248,-0c-3.036,-2.252 -6.967,1.007 -11.248,-0m69.741,-2.999c1.734,0.948 10.188,2.214 9.748,-1.5c-2.94,0.809 -9.235,-1.737 -9.748,1.5m-60.743,35.245c1.934,-9.379 -5.708,-22.484 0.75,-24.747c-3.652,1.152 -2.25,-2.749 -3.749,-3.75c-0.967,6.152 1.179,19.088 2.999,28.497m14.249,-37.495c-1.885,-1.406 1.247,-0.083 2.25,-0c-0.021,0.729 -0.918,0.582 -1.5,0.75c1.051,2.184 2.583,-1.33 4.499,-0.75c-0.487,-0.763 -1.724,-0.776 -1.499,-2.25c2.468,-0.691 7.133,1.983 10.498,-0.75c-0.787,-2.463 -3.22,-3.279 -5.249,-4.5c-0.137,-5.936 -0.245,-12.194 2.249,-13.497c0.439,0.753 4.44,3.214 5.999,-0c1.464,0.319 -1.226,2.142 2.25,1.499c-0.425,0.7 -2.085,1.135 -0.75,1.5c-1.704,2.877 -2.897,-0.317 -5.999,-0c0.955,1.899 3.773,4.391 2.25,8.249c1.288,-1.027 7.612,1.171 9.749,-1.5c2.898,3.929 -1.986,6.491 -4.5,7.499c4.042,1.457 10.539,0.459 14.248,2.25c1.278,-4.165 3.962,-6.755 8.249,-6c1.695,2.055 2.722,4.778 3.75,7.5l5.249,-0c1.496,-0.754 1.183,-3.316 3.749,-3c5.261,0.278 4.523,10.533 1.5,12.748c-2.392,0.643 -2.319,-1.18 -3.749,-1.499c-2.155,5.368 -2.991,26.296 0.75,32.995c-1.988,1.758 -3.199,5.729 -1.5,8.999c-1.09,0.41 -3.876,-0.876 -3.749,0.75c-3.399,-9.144 -0.855,-24.28 -1.5,-40.495c-2.858,1.391 -1.547,6.952 -6.75,5.999l0,-11.998c-2.601,-0.602 -2.883,1.117 -5.249,0.75c3.565,2.208 -0.801,10.864 0.75,17.998c1.043,-3.358 2.751,-1.65 2.249,2.25c2.334,-0.168 1.268,-3.733 1.5,-6c-0.317,-1.443 0.515,-2.706 0.75,-1.5l0,3.75c0.334,15.23 2.949,24.927 -11.248,26.997l-0,11.248c0.547,2.766 2.257,-0.319 3.749,1.499c-2.782,4.611 -2.313,10.601 -3.749,14.999c-1.428,1.405 -1.884,0.082 -3.749,-0c-0.546,2.046 1.489,1.51 1.5,2.999c1.876,0.128 2.347,-1.152 2.999,-2.249c4.356,0.534 5.391,5.313 3.749,9.748c-2.68,0.154 -4.429,-2.549 -5.249,0.75c-1.583,-0.666 -2.216,-2.283 -4.499,-2.25c-0.734,0.754 -1.233,3.317 0.75,3c-4.017,2.492 -5.227,-4.254 -4.5,-8.999c1.43,-0.319 1.357,-2.142 3.75,-1.499c0.713,-5.556 1.855,-11.22 -2.25,-14.999c4.767,-2.826 3.138,-7.78 3,-12.748l-10.499,-0c-3.109,3.377 2.324,14.968 -2.25,14.998c0.479,1.833 3.506,0.114 3.749,-0.75c0.936,3.631 -2.729,9.901 -0.749,14.998c2.977,1.772 5.589,3.91 4.499,9.749c-3.801,2.655 -5.584,-1.852 -7.499,2.25c-1.6,0.351 -1.429,-1.071 -1.5,-2.25c-1.961,-0.876 -3.226,2.314 -2.999,-0.75c-1.018,0.233 -0.623,1.878 -0.75,3c-1.626,-3.246 -2.494,-5.745 -0.75,-9.749c3.277,-2.317 6.094,4.487 8.249,-0.75c-0.682,-2.051 -2.628,1.331 -3.75,-0.75c-1.697,-14.431 -1.554,-14.395 -1.499,-29.996c-5.189,-3.56 -8.383,-9.115 -11.249,-14.998c2.566,-0.316 2.253,2.246 3.75,2.999c2.424,-1.644 1.398,-17.937 2.25,-5.999c-0.018,1.767 1.291,2.208 0.749,4.5c4.717,1.944 2.124,-1.993 5.999,0c0.85,-5.1 -0.925,-7.573 -2.249,-10.499c-0.137,-1.636 0.613,-2.386 2.249,-2.249c-0.76,-2.925 -0.088,-14.958 2.25,-17.998c-1.012,-0.56 -8.044,1.292 -6.749,-3.749c-1.696,0.303 0.395,4.394 -2.999,2.999c1.607,3.391 0.353,9.645 0.75,14.248c-1.008,-0.493 -1.398,-1.603 -1.5,-3c-1.617,1.117 0.819,2.117 -1.5,3c-1.32,-0.18 -1.71,-1.29 -1.5,-3c-1.196,2.054 -1.827,4.672 -6,3.75c-1.96,-2.539 -1.008,-7.99 -3.749,-9.749c-5.734,17.333 5.834,42.593 1.5,56.993c-0.068,-1.226 1.249,-3.262 0,-1.5c-2.281,-1.219 1.313,-8.313 -3,-7.499c-2.606,3.061 -0.392,6.558 -0.75,11.249c-5.392,-3.009 0.725,-10.338 -3.749,-13.499c-0.355,-2.354 2.018,-1.981 2.249,-3.749c-3.942,-8.821 -0.31,-33.309 -6.749,-41.245c-2.691,-0.442 -0.02,4.479 -2.999,3.749c-3.489,-3.174 -2.481,-7.856 -2.25,-13.497c5.129,3.787 19.782,3.925 17.248,-6.75l4.499,0c0.729,2.77 2.693,4.306 2.25,8.249c1.901,0.565 3.517,-2.864 2.25,-2.999" style="fill:#231f20;"/><path d="M9.312,62.992c1.499,1 0.097,4.902 3.749,3.75c-6.458,2.263 1.184,15.367 -0.749,24.747c-1.821,-9.409 -3.967,-22.346 -3,-28.497" style="fill:#fff;"/><path d="M11.562,70.491c2.872,5.127 2.044,13.953 3,20.998c-1.887,-6.113 -1.886,-14.113 -3,-20.998" style="fill:#fff;"/><path d="M40.058,156.73c1.125,-1.609 1.834,0.537 3.75,-0.749c2.026,2.516 -0.579,6.917 -0,0.749c-2.309,0.525 -1.442,0.525 -3.75,0" style="fill:#231f20;"/><path d="M54.306,66.742c-0.033,1.282 0.557,1.942 1.5,2.249c-1.529,3.813 -5.36,0.704 -5.249,-0.75c0.11,-1.639 1.889,-1.609 3.749,-1.499" style="fill:#fff;"/></svg>