<?xml version="1.0" encoding="UTF-8" standalone="no"?><!DOCTYPE svg PUBLIC "-//W3C//DTD SVG 1.1//EN" "http://www.w3.org/Graphics/SVG/1.1/DTD/svg11.dtd"><svg width="100%" height="100%" viewBox="0 0 91 144" version="1.1" xmlns="http://www.w3.org/2000/svg" xmlns:xlink="http://www.w3.org/1999/xlink" xml:space="preserve" xmlns:serif="http://www.serif.com/" style="fill-rule:evenodd;clip-rule:evenodd;stroke-linejoin:round;stroke-miterlimit:2;"><path d="M12.78,44.272c-1.14,2.162 0.024,2.345 -0.75,5.25c-2.196,-1.336 -2.964,-4.825 0.75,-5.25" style="fill:#fff;"/><path d="M3.032,100.515c1.211,-0.211 1.291,0.709 2.25,0.75c-1.814,2.414 0.277,8.438 -0.75,9.749c-2.66,-0.577 0.575,-7.617 -1.5,-10.499" style="fill:#231f20;"/><path d="M14.28,100.515c1.932,0.569 2.606,2.393 2.25,5.249c-0.63,2.382 -0.989,-1.33 -0.75,-2.249c-0.232,-1.018 -1.878,-0.622 -3,-0.75c0.266,-0.985 1.32,-1.18 1.5,-2.25" style="fill:#231f20;"/><path d="M84.772,101.265c2.434,0.565 -1.331,7.33 2.249,6.749c-0.142,0.608 -0.752,0.747 -0.749,1.5l-2.25,0c2.009,-1.95 -0.399,-7.161 0.75,-8.249" style="fill:#231f20;"/><path d="M37.527,135.011c1.614,0.637 2.653,1.847 2.25,4.499c-2.274,0.025 -1.869,-2.631 -2.25,-4.499" style="fill:#fff;"/><path d="M55.525,135.011c2.52,-0.77 1.168,2.332 1.5,3.75c-2.648,-0.259 -1.938,-1.969 -1.5,-3.75" style="fill:#fff;"/><path d="M57.025,138.761c-0.332,-1.418 1.02,-4.52 -1.5,-3.75c-0.438,1.781 -1.148,3.491 1.5,3.75m-17.248,0.749c0.403,-2.652 -0.636,-3.862 -2.249,-4.499c0.381,1.868 -0.025,4.524 2.249,4.499m-7.499,-71.241c-3.909,15.158 13.008,9.49 23.247,10.499c1.766,-3.982 1.739,-8.376 -1.5,-11.248c-10.392,-0.543 -11.718,-2.04 -21.747,0.749m-0.75,-17.998c0.276,5.013 -0.265,6.226 1.5,9.75c5.88,1.719 14.868,-0.033 23.247,-0c5.569,-14.921 -15.169,-14.871 -24.747,-9.75m-19.497,-0.749c0.773,-2.904 -0.391,-3.088 0.75,-5.25c-3.714,0.426 -2.947,3.914 -0.75,5.25m19.497,-18.748c-0.888,2.223 0.49,5.092 0,8.999c6.885,4.237 13.011,0.858 23.997,1.5c1.437,-1.813 0.474,-6.026 0.75,-8.999c-8.307,-5.231 -14.529,-3.084 -24.747,-1.5m26.997,-6.749c1.262,2.987 1.735,6.764 4.5,8.249c1.66,-0.589 -0.144,-4.642 2.999,-3.75c0.142,3.276 1.868,5.796 0.75,8.25c5.413,-2.583 12.316,2.738 14.998,7.498c0.998,-0.565 -0.609,-4.84 -2.25,-5.249c3.451,-0.686 4.53,7.456 5.25,11.998c1.992,0.008 4.282,-0.283 5.249,0.75c-0.386,2.614 -4.9,1.1 -7.499,1.5c0.138,2.362 4.039,0.96 3.75,3.75l-2.25,-0c1.338,9.592 -2.711,25.503 1.5,28.496c2.019,0.666 -1.299,2.094 -3,1.5c0.478,2.771 -0.972,7.471 0.75,8.999c-2.862,1.581 -3.081,-1.081 -1.5,2.999c-0.798,-0.867 -3.454,-0.275 -4.5,0.75c-1.151,-0.775 2.02,-2.973 1.5,-3.749c-2.106,0.772 -1.425,-4.156 -1.5,-7.499c0.127,-1.626 -2.66,-0.34 -3.749,-0.75c1.397,-5.858 4.679,-22.149 2.249,-29.996c-0.258,-0.837 -1.261,-0.666 -2.249,-0.75c-0.229,-1.978 1.565,-1.934 2.999,-2.25c-0.932,-2.067 -6.95,0.951 -5.999,-3c10.587,0.891 5.408,-13.178 -2.249,-11.248c-2.173,1.327 -0.621,6.378 -4.5,5.999l-0,43.495c-2.732,-0.232 -4.88,0.119 -6.749,0.75c0.771,4.695 -1.394,13.865 0.75,14.998c-0.113,1.865 -2.54,0.219 -3,-0c0.583,1.419 1.579,8.744 0,11.998c-2.459,-0.569 -1.868,-8.092 -0.75,-9.748c-0.492,-1.007 -1.602,-1.397 -3,-1.5c0.122,-0.879 1.368,-0.633 2.25,-0.75c-3.072,-2.427 -0.807,-10.191 -1.5,-14.998l-12.748,-0c-1.337,3.523 -0.291,12.821 0.75,14.248c-0.671,1.29 -3.044,2.355 -2.249,-0.75c-2.553,0.906 2.262,9.795 -0.75,13.498c0.327,1.113 0.959,-0.296 2.249,0c0.777,2.111 0.362,5.944 -0.749,8.249c0.28,2.469 3.986,1.513 3.749,4.5c-2.589,0.699 -2.243,5.149 -0.75,5.999c1.298,-0.679 2.071,-2.761 -0,-3c1.393,-1.343 3.516,2.946 4.499,4.5c1.313,-1.687 1.783,-4.217 3,-5.999c0.554,2.583 1.342,2.649 1.499,6.749c3.547,-0.881 -1.165,-5.992 1.5,-8.249c-0.42,-1.695 -1.169,0.909 -2.249,-0.75c-0.126,-2.626 2.639,-2.361 3.749,-3.75c-1.653,-1.096 0.441,-5.94 -2.25,-5.999c1.368,0.113 3.103,-1.872 6,-2.25c-2.941,2.499 0.534,2.856 -0.75,9.749c0.519,1.003 2.001,-0.37 3.75,0.75c-3.248,4.517 1.715,3.784 2.25,8.249c0.279,4.779 -6.453,2.547 -6.75,6.749c-4.344,-0.155 -8.247,-0.751 -9.749,-3.75c-2.663,4.812 -12.4,5.763 -17.248,2.25c0.999,-1.902 3.329,1.1 5.25,0.75c-0.558,-2.192 -4.048,-1.451 -3.75,-4.499c2.188,-0.667 2.588,-0.957 3.75,0.75c1.611,-1.601 0.279,-4.085 -1.5,-4.5c-1.978,-0.228 -1.934,1.566 -2.25,3c-1.827,-2.12 1.59,-5.378 4.5,-5.249c-0.582,-0.668 -0.807,-1.694 -0.75,-3c-0.879,0.12 -0.633,1.367 -0.75,2.25c-3.57,-1.374 0.875,-4.835 3,-3c-1.183,-1.567 -0.52,-4.98 -1.5,-6.75c3.095,-12.387 -1.584,-16.057 -0.75,-29.996c-1.289,-1.461 -3.883,-1.615 -6.75,-1.499c-1.293,-16.704 1.461,-37.456 -4.499,-49.494c-7.564,-1.88 -13.324,9.999 -4.499,11.248c0.21,2.403 -3.284,2.727 -4.499,1.5c-0.798,2.797 2.812,1.188 2.249,3.75l-2.249,-0c0.748,10.25 -1.926,23.922 2.249,30.746l-3.749,-0l-0,8.999c-3.417,-2.252 -0.43,1.073 -2.25,2.249c-1.894,-0.383 -2.694,-8.868 -0,-10.498c-0.598,-1.652 -1.506,-2.994 -3.75,-3c-2.655,0.084 1.594,2.479 -0.75,2.25c-3.528,-0.197 0.47,-3.378 0.75,-4.499c0.507,-12.744 -0.032,-17.576 0.75,-26.247c-0.232,-1.018 -1.878,-0.622 -3,-0.75c0.207,-1.544 2.794,-0.706 3,-2.25c-0.569,-2.181 -6.18,0.681 -6.749,-1.5c-0.458,-2.958 4.118,-0.882 5.999,-1.5c2.745,-7.491 4.489,-16.553 16.498,-16.497c-0.531,-2.781 1.281,-3.219 0.75,-6c2.794,-0.794 2.421,1.579 3.749,2.25c2.99,0.489 2.149,-2.851 2.25,-5.249c9.42,-3.38 21.099,-1.139 29.247,-1.5" style="fill:#231f20;"/><path d="M52.526,21.775c-0.142,0.824 -10.098,2.498 -14.999,0.75c-2.425,-0.863 2.014,-0.849 3,-0.75c0.343,-2.343 -1.602,-2.397 -3.75,-2.25c0.638,-1.112 1.888,-1.612 3.75,-1.5c-2.048,-2.534 2.792,-8.906 0,-14.248c0.065,-1.935 3.211,-0.789 2.249,-3.75c3.435,-0.451 0.558,4.866 3,2.25c2.019,1.35 -0.488,4.452 -3,3.75c4.175,2.383 3.749,5.506 2.25,8.249c0.562,1.417 2.238,0.52 0.75,2.25c0.55,0.7 1.364,1.136 2.25,1.499c1.207,-0.134 -1.221,-3.563 2.25,-2.999c-1.923,-2.618 -0.045,-6.397 -2.25,-9.749c2.703,-2.165 2.506,4.965 5.25,5.25c-2.165,3.991 -0.06,4.615 -0,8.998c-1.992,0.008 -4.283,-0.283 -5.25,0.75c1.587,2.09 2.178,0.52 4.5,1.5" style="fill:#231f20;"/><path d="M56.275,32.274c-0.276,2.973 0.687,7.187 -0.75,8.999c-10.986,-0.642 -17.112,2.736 -23.997,-1.5c0.49,-3.907 -0.888,-6.775 0,-8.999c10.218,-1.584 16.44,-3.731 24.747,1.5" style="fill:#fff;"/><path d="M54.025,67.52c3.239,2.872 3.266,7.266 1.5,11.248c-10.239,-1.009 -27.156,4.658 -23.247,-10.498c10.029,-2.79 11.355,-1.293 21.747,-0.75" style="fill:#fff;"/><path d="M56.275,60.02c-8.379,-0.032 -17.367,1.72 -23.247,0c-1.765,-3.523 -1.224,-4.735 -1.5,-9.749c9.578,-5.122 30.316,-5.171 24.747,9.749" style="fill:#fff;"/></svg>