<?xml version="1.0" encoding="UTF-8" standalone="no"?><!DOCTYPE svg PUBLIC "-//W3C//DTD SVG 1.1//EN" "http://www.w3.org/Graphics/SVG/1.1/DTD/svg11.dtd"><svg width="100%" height="100%" viewBox="0 0 107 148" version="1.1" xmlns="http://www.w3.org/2000/svg" xmlns:xlink="http://www.w3.org/1999/xlink" xml:space="preserve" xmlns:serif="http://www.serif.com/" style="fill-rule:evenodd;clip-rule:evenodd;stroke-linejoin:round;stroke-miterlimit:2;"><path d="M40.991,23.247c-3.49,0.672 -3.844,-3.974 0,-3l0,3Z" style="fill:#231f20;"/><path d="M47.74,45.745c4.671,-1.917 7.973,0.516 11.999,-0.75c-1.202,3.111 -9.476,1.225 -11.999,0.75" style="fill:#231f20;"/><path d="M47.74,50.244c4.363,0.386 10.342,-0.843 13.498,0.75l0,3.75c-3.156,1.593 -9.135,0.363 -13.498,0.749c0.666,-2.736 -1.325,-3.993 0,-5.249" style="fill:#231f20;"/><path d="M52.99,38.246c-6.697,-2.679 -0.189,-10.886 2.249,-10.499c-7.784,-1.492 -6.937,11.72 -2.249,10.499m-18.748,-36.746c-0.73,-0.02 -0.582,-0.918 -0.75,-1.5c5.413,4.337 9.595,9.903 14.998,14.249c3.186,-1.491 10.332,1.929 14.248,-1.5c1.754,1.561 -1.872,4.083 -2.999,5.249c1.92,2.329 4.318,4.181 5.249,7.499c2.273,-1.226 4.109,-2.89 5.999,-4.499c1.386,1.924 1.05,8.519 0,10.498c-3.354,-0.906 2.526,-5.958 -2.25,-6.749c-1.676,0.323 -0.303,3.696 -0.75,5.249c-1.086,-0.912 -1.004,-2.994 -2.999,-2.999c-3.046,1.454 -0.82,8.179 -1.5,11.999l-4.499,-0c0.062,1.187 -0.361,2.86 0.75,3c-5.921,0.678 -14.613,4.002 -15.749,-1.5c2.128,-0.129 1.464,2.535 4.5,1.5c0.701,-0.55 1.137,-1.364 1.5,-2.25c-0.315,-1.685 -3.979,-0.021 -4.5,-1.5c0.093,-5.506 -0.738,-5.639 -0.75,-11.249c-4.449,-1.2 -1.548,4.95 -5.999,3.749c0.065,-1.063 0.124,-2.123 -0.75,-2.249c1.922,-1.218 2.171,-1.82 3,-5.25c5.636,1.386 2.51,-5.989 8.999,-3.749c-3.888,-7.361 -9.995,-12.502 -15.748,-17.998" style="fill:#231f20;"/><path d="M55.239,27.747c-2.438,-0.387 -8.946,7.82 -2.249,10.499c-4.688,1.221 -5.535,-11.991 2.249,-10.499" style="fill:#fff;"/><path d="M17.744,48.744c2.828,0.577 5.827,-0.051 9.749,0c0.228,-1.977 -1.566,-1.934 -3,-2.25c1.299,-2.103 1.965,-0.704 4.5,-0.75c-0.724,-1.526 -2.88,-1.619 -5.25,-1.5c-0.248,-2.747 0.833,-4.166 1.5,-5.999c0.887,0.864 2.651,0.849 4.5,0.75c-0.21,1.71 0.18,2.819 1.5,3c1.755,-0.244 0.728,-3.271 2.249,-3.75c7.136,3.169 -2.318,11.605 0.75,20.248c-2.32,0.07 -2.234,-2.264 -2.25,-4.499c-3.164,0.585 -2.386,5.113 -6.749,4.499c-1.605,-1.895 -1.042,-5.957 -2.25,-8.249c-5.412,-0.026 -8.925,5.385 -12.748,4.5c2.22,-1.799 7.617,-4.357 7.499,-6" style="fill:#231f20;"/><path d="M16.658,53.271c-4.254,1.413 -10.138,5.618 -11.692,12.021c-1.063,-0.83 -1.825,-0.121 -2.908,-1.052c-0.698,2.179 2.254,0.975 3.112,2.091c-0.864,3.861 -3.187,0.277 -4.377,2.481c-1.126,-1.581 0.034,-3.609 1.061,-5.612c1.124,1.138 1.935,0.681 2.908,1.051c0.948,-1.612 -1.985,-1.599 -2.49,-1.674c-1.384,-1.318 1.936,-0.645 2.704,0.01c0.197,-0.827 2.193,-5.217 2.092,-3.111c0.168,-3.52 -3.636,-0.959 0.214,-1.664c1.627,-0.298 5.043,-5.821 9.376,-4.541" style="fill:#231f20;"/><path d="M4.304,75.688c-1.046,1.984 0.404,4.252 4.959,8.754c1.184,-1.133 -0.093,-1.783 -1.031,-2.499c0.137,-2.184 6.89,5.829 8.316,1.07c-0.204,2.921 -1.854,6.127 -1.489,8.938c-2.034,-2.106 -3.3,-0.294 -4.785,0.398c2.226,-8.009 -13.433,-12.42 -9.694,-21.874c1.237,2.375 1.633,3.286 2.703,0.009c-1.046,-0.742 -1.923,-0.62 -2.703,-0.009c-1.429,-2.306 2.238,-1.046 2.917,-1.654c0.518,1.7 -0.194,3.641 1.021,5.204c-0.893,0.741 -0.631,-0.781 -1.867,-1.255c-2.122,1.497 1.694,1.829 -0.429,3.327c0.74,0.096 1.481,0.201 2.082,-0.409" style="fill:#231f20;"/><path d="M42.491,41.245c-0.397,0.603 -0.783,1.218 -0.75,2.25c-1.663,0.413 -1.068,-1.432 -2.25,-1.5c-0.638,-0.138 -0.707,0.293 -0.75,0.75c-2.127,-0.994 1.926,-1.987 3.75,-1.5" style="fill:#231f20;"/><path d="M47.151,133.88c3.958,0.042 5.838,2.162 6.749,5.25c0.179,-3.321 2.585,-4.414 5.249,-5.25l0,-29.996c-3.889,-0.361 -9.307,0.808 -11.998,-0.75c-1.8,14.524 0.506,15.76 -0,30.746m16.498,-43.494c-1.455,-2.188 -1.06,-7.711 2.249,-7.499c1.914,0.955 -0.695,3.674 0.75,3.749c1.07,-1 1.07,-4.248 0,-5.249c-8.436,1.55 -19.883,0.665 -28.497,0c-0.586,0.521 -1.668,4.184 0,4.499c-0.21,-1.96 0.275,-3.225 2.25,-2.999c-0.958,1.625 1.768,3.569 0,6.749c-1.635,0.136 -2.385,-0.614 -2.25,-2.25c0.7,0.459 2.767,1.745 2.25,-0.75l-2.999,0c-0.542,2.292 0.767,2.733 0.749,4.5c6.876,0.825 31.686,4.038 28.497,-3.75c0.515,2.514 -1.258,2.742 -2.999,3m-16.498,-17.997c2.267,-0.234 5.832,0.832 5.999,-1.5c-2.737,0.486 -3.995,-0.506 -5.249,-1.5c0.168,1.417 -0.846,1.654 -0.75,3m14.248,-18.748c2.953,-5.817 17.861,-3.055 20.997,-5.249c-0.142,0.606 -0.752,0.747 -0.749,1.499c2.853,-2.411 2.821,0.854 5.249,-0.75c1.865,0.113 0.219,2.539 0,3c0.996,-0.753 2.79,-0.71 2.999,-2.25c1.772,0.209 -0.859,2.003 -0.75,3c1.71,0.209 2.82,-0.181 3,-1.5c-1.949,1.549 4.078,7.915 6.75,4.499c1.903,0.592 -2.11,2.623 -0,3.75c0.666,-0.333 1.341,-0.658 1.499,-1.5c-1.047,4.33 4.861,0.11 1.5,3.749c0.169,0.956 2.239,0.984 2.25,0c2.172,0.42 -1.151,1.17 -0.75,2.25c-0.23,1.523 2.166,-0.153 2.249,-0.75c1.868,0.305 0.045,2.907 -1.499,2.25c5.112,20.64 -9.952,26.841 -13.499,41.245c-2.065,1.434 -3.815,3.184 -5.249,5.249c-1.864,-1.386 -4.231,-2.268 -5.249,-4.499c8.179,-11.99 24.334,-16.815 22.497,-36.745c-1.707,-3.234 -6.318,-6.063 -5.249,-9.75c-2.802,-4.076 -5.058,-1.238 -6,-5.249c-2.348,-0.385 -3.348,2.051 -3,-1.499c-3.789,3.01 -10.525,-3.023 -14.997,3.749c0.729,-0.021 0.581,-0.918 0.75,-1.5c1.53,4.598 0.533,10.866 1.5,14.249c0.132,2.632 -2.534,2.466 -3,4.499c-1.155,8.344 2.998,21.996 -3.75,24.747c-1.315,9.405 -0.726,27.112 -0.75,32.995c0.998,1.753 3.351,2.149 5.25,3c5.127,13.102 -14.661,12.949 -20.248,7.5c-4.679,4.513 -15.568,4.513 -20.248,-0c-0.281,-5.031 0.865,-8.636 5.249,-9c-0.189,-16.544 -0.029,-23.076 -0.749,-33.745c-7.119,-3.38 -1.707,-19.291 -4.5,-26.997c2.529,-1.99 5.75,1.721 8.999,1.5c0.603,-0.397 1.218,-0.782 2.25,-0.75c-1.362,-1.949 0.325,-2.261 -0.75,-4.499c1.56,-1.643 2.424,0.657 3.75,-0.75c-0.113,-1.387 -2.54,-0.461 -3,-1.5c1.38,-7.509 -0.326,-10.967 2.25,-15.748c-1.401,-2.849 -7.666,-0.833 -8.25,-4.499c2.38,-1.653 6.63,1.241 10.5,-0c-0.693,-2.808 -6.022,-0.978 -9,-1.5c5.739,-2.412 17.549,-1.584 26.997,-1.5c-1.248,1 -0.25,4.248 -1.5,5.249l-3.749,-0c0.525,-2.308 0.525,-1.441 0,-3.749l-8.249,-0c3.204,0.89 1.379,2.481 -0,4.499c3.702,0.048 6.236,1.263 8.249,3" style="fill:#231f20;"/><path d="M52.4,89.636c0.584,0.166 0.872,0.628 0.75,1.5l3.749,0c1.077,-2.281 0.136,-4.486 -0.75,-6.75c-2.355,-0.355 -3.063,0.936 -3.749,2.25c1.709,1.031 2.819,-1.933 3,0c-2.595,2.291 1.557,2.405 -3,3m-5.25,-1.5c0.141,2.11 1.305,3.195 3.75,3c1.709,-2.092 -0.756,-3.704 0.75,-6c-0.961,-1.03 -4.484,-1.305 -4.5,0.75c1.08,1.66 1.83,-0.943 2.25,0.75c-1.826,1.41 1.469,2.723 -2.25,1.5m-1.499,2.25l-0,-6l-2.25,0c-0.475,0.851 0.253,5.3 2.25,6m12.748,0.75c1.318,-0.432 4.407,0.906 4.5,-0.75c-4.038,-1.563 0.857,-3.507 -1.5,-6.749c0.582,-0.168 1.479,-0.021 1.5,-0.75c-4.828,-0.151 -5.362,5.719 -2.25,3.749c-1.569,0.682 -2.286,2.213 -2.25,4.5m8.25,-3.75c3.187,7.788 -21.622,4.575 -28.497,3.75c0.016,-1.767 -1.292,-2.208 -0.75,-4.5l3,0c0.516,2.495 -1.551,1.208 -2.25,0.75c-0.136,1.637 0.614,2.386 2.25,2.25c1.767,-3.181 -0.959,-5.124 -0,-6.749c-1.977,-0.226 -2.462,1.039 -2.25,2.999c-1.669,-0.315 -0.588,-3.979 -0,-4.499c8.613,0.665 20.06,1.55 28.497,-0c1.069,1 1.069,4.249 -0,5.249c-1.446,-0.076 1.164,-2.794 -0.75,-3.749c-3.31,-0.212 -3.705,5.311 -2.25,7.499c1.741,-0.259 3.514,-0.485 3,-3" style="fill:#fff;"/></svg>