<?xml version="1.0" encoding="UTF-8" standalone="no"?><!DOCTYPE svg PUBLIC "-//W3C//DTD SVG 1.1//EN" "http://www.w3.org/Graphics/SVG/1.1/DTD/svg11.dtd"><svg width="100%" height="100%" viewBox="0 0 91 114" version="1.1" xmlns="http://www.w3.org/2000/svg" xmlns:xlink="http://www.w3.org/1999/xlink" xml:space="preserve" xmlns:serif="http://www.serif.com/" style="fill-rule:evenodd;clip-rule:evenodd;stroke-linejoin:round;stroke-miterlimit:2;"><path d="M36.895,1.5l2.25,-0l-0,3.75l-3,-0c-0.239,-1.74 0.121,-2.88 0.75,-3.75" style="fill:#231f20;"/><path d="M36.895,11.998c4.758,0.242 10.633,-0.634 14.248,0.75c-0.093,1.656 -3.181,0.319 -4.499,0.75c0.113,1.387 2.539,0.461 2.999,1.5c-2.021,1.728 -7.233,0.266 -10.498,0.75c3.305,-3.838 -2.104,-1.281 -2.25,-3.75" style="fill:#231f20;"/><path d="M35.395,28.496c1.31,0.69 1.655,2.345 1.5,4.5c-2.125,0.126 -3.125,1.374 -5.25,1.5c-1.253,4.827 -2.007,7.521 -3.749,10.498c-3.368,-2.042 -1.944,-7.14 -3.75,-11.998c3.505,-3.28 8.232,-0.732 11.249,-4.5" style="fill:#fff;"/><path d="M48.143,55.493c-9.345,2.298 -10.927,-0.877 0,-0" style="fill:#fff;"/><path d="M49.643,90.738c0.501,-2.082 2.655,-4.9 0,-2.25c0.501,-2.082 2.655,-4.899 0,-2.249c0.501,-2.082 2.655,-4.9 0,-2.25c1.73,-3.269 -0.328,-4.807 1.5,-4.499c0.225,-1.474 -1.013,-1.487 -1.5,-2.25c1.75,-0.419 1.75,-2.256 0,-0.75c0.39,-1.109 1.11,-1.89 1.5,-2.999c-1.593,-1.063 -2.806,-5.232 -3,-9.749l-8.999,0c-0.086,2.663 0.542,6.041 -2.249,5.999c1.193,2.866 1.193,0.884 -0,3.75c0.582,0.168 1.479,0.021 1.5,0.75c-3.161,-0.129 -0.515,1.679 -0,2.249c-1.329,1.567 -1.134,2.998 -0,5.25c-3.161,-0.13 -0.515,1.679 -0,2.249c-3.163,-0.127 0.013,1.152 -0,2.25c-0.752,0.002 -0.893,-0.607 -1.5,-0.75c-0.77,4.172 1.168,1.502 2.249,2.999c-1.896,-0.789 -3.324,2.53 -1.499,3c0.179,-0.814 1.234,-1.8 1.499,-0.75c-1.097,0.653 -2.376,1.123 -2.249,3c1.474,0.225 1.487,-1.013 2.249,-1.5c-0.045,3.094 -0.552,3.438 -2.249,6c3.582,-0.966 8.491,1.566 7.499,7.499c3.047,-1.202 0.393,-8.106 5.999,-6.749c0.168,-0.582 0.021,-1.48 0.75,-1.5c0.546,-2.046 -1.49,-1.51 -1.5,-3c3.153,1.524 -0.003,-1.269 0,-3c2.265,-0.702 1.398,-3.381 0,-0.75m-1.5,-35.245c-10.927,-0.877 -9.345,2.298 0,-0m-23.997,-22.497c1.806,4.858 0.381,9.956 3.75,11.998c1.743,-2.977 2.496,-5.672 3.75,-10.498c2.124,-0.126 3.124,-1.375 5.249,-1.5c0.155,-2.155 -0.19,-3.809 -1.5,-4.499c-3.017,3.767 -7.743,1.219 -11.249,4.499m6,-14.999c0.592,0.886 -2.874,4.093 -1.5,8.25c2.172,-0.993 0.722,-3.765 0.75,-6c6.765,-4.212 21.654,-3.843 28.497,0c0.444,2.393 -1.408,2.319 -0,3.75c1.626,0.126 0.339,-2.66 0.75,-3.75c0.42,0.756 2.486,5.546 2.249,6.75c0.652,1.131 1.123,-0.207 3,0.75l-0,4.499c-4.463,-1.142 -11.071,-7.784 -15.749,-3.749c-1.879,-1.798 -2.372,-0.326 -3.749,-2.25c-1.916,0.084 -1.489,2.511 -1.5,4.499c-1.112,-0.638 -1.612,-1.887 -1.5,-3.749c-1.006,0.151 -1.396,3.114 -1.5,-0c-2.237,0.511 -2.513,2.985 -2.249,5.999c5.572,-1.8 6.826,0.087 12.748,-0c-0.061,3.806 9.353,3.646 11.999,-0c1.747,8.252 0.252,19.745 0.75,29.246c-1.43,0.32 -1.358,2.143 -3.75,1.5c-0.003,3.746 -0.653,6.846 -3.749,7.499c1.319,3.674 1.335,6.296 -0,10.499c1.114,0.467 2.013,0.382 -0,2.249c1.114,0.468 2.013,0.383 -0,2.25c1.107,0.214 0.939,7.781 -0,8.999c0.561,1.416 2.238,0.52 0.75,2.25c0.862,0.472 4.109,1.472 5.999,3c-0.521,4.269 1.27,6.228 0.75,10.498c-4.346,3.089 -14.471,3.041 -17.999,-0.75c-4.133,3.579 -13.164,3.743 -17.997,0.75c-0.438,-3.937 1.322,-5.677 0.75,-9.748c1.648,-0.852 2.491,-2.509 4.5,-3c-0.726,-5.917 -1.146,-13.368 -0,-14.999c-1.115,-0.467 -2.014,-0.382 -0,-2.249c-1.252,0.326 -2.438,-2.779 -0,-3c-0.998,-1.421 -1.818,-3.544 -0,-4.499c-2.099,-3.712 -4.683,-11.244 -10.5,-13.499c0.013,-3.262 0.249,-6.747 -0.75,-8.998c0.669,-0.583 1.695,-0.807 3,-0.75c-0.312,-5.937 0.979,-13.477 -1.5,-17.248c-0.955,0.169 -0.982,2.238 0,2.25c-3.027,1.126 -0.328,-5.895 -0.75,-8.999c-21.987,2.302 -23.805,34.682 -9.748,44.244c0.58,0.394 -0.084,-1.058 -0.75,-1.5c1.901,1.262 7.422,4.862 9.748,6.75c0.128,2.074 -1.151,2.574 -2.249,1.499c-0.108,2.358 1.923,2.576 3.749,3c0.517,2.016 -1.55,1.45 -2.249,2.249c-0.229,2.344 2.167,-1.906 2.249,0.75c-2.01,4.215 -9.729,0.848 -12.748,4.5c-1.403,-4.096 -5.446,-5.552 -7.499,-8.999c1.441,0.187 3.522,-1.453 5.25,-2.999c-0.348,-2.403 -2.856,-2.645 -3,-5.25c2.433,0.317 2.382,3.117 4.5,3.75c-13.698,-13.902 -13.416,-47.546 10.498,-50.244c0.467,-0.464 3.133,2.819 2.999,-0c0.73,0.021 0.582,0.918 0.75,1.5c2.142,-1.965 1.731,-2.582 2.25,-5.25c2.535,0.285 3.2,-1.299 4.5,-2.25" style="fill:#231f20;"/><path d="M81.139,73.49c-0.868,3.761 4.771,3.681 2.25,6.75c-1.667,1.735 -2.924,-0.255 -5.25,-0c-2.66,3.825 -3.709,8.933 -8.998,8.249c-3.225,-4.399 1.2,-8.345 3.749,-11.249c-0.325,-2.824 -3.119,-3.175 -1.5,-6c2.37,-0.119 4.526,-0.026 5.249,1.5c15.677,-10.968 13.22,-50.434 -12.748,-45.744c-0.879,-0.12 -0.632,-1.367 -0.75,-2.25c28.12,-6.765 34.733,33.858 17.998,48.744" style="fill:#231f20;"/><path d="M49.643,91.488c-0.003,1.731 3.153,4.524 0,3c0.01,1.49 2.046,0.954 1.5,3c-0.729,0.02 -0.582,0.918 -0.75,1.5c-5.606,-1.357 -2.952,5.547 -5.999,6.749c0.992,-5.933 -3.917,-8.465 -7.499,-7.499c1.697,-2.562 2.204,-2.906 2.249,-6c-0.762,0.487 -0.775,1.725 -2.249,1.5c-0.127,-1.877 1.152,-2.347 2.249,-3c-0.265,-1.05 -1.32,-0.064 -1.499,0.75c-1.825,-0.47 -0.397,-3.789 1.499,-3c-1.081,-1.497 -3.019,1.173 -2.249,-2.999c0.607,0.143 0.748,0.752 1.5,0.75c0.013,-1.098 -3.163,-2.377 -0,-2.25c-0.515,-0.57 -3.161,-2.379 -0,-2.249c-1.134,-2.252 -1.329,-3.683 -0,-5.25c-0.515,-0.57 -3.161,-2.378 -0,-2.249c-0.021,-0.729 -0.918,-0.582 -1.5,-0.75c1.193,-2.866 1.193,-0.884 -0,-3.75c2.791,0.042 2.163,-3.336 2.249,-5.999l8.999,0c0.194,4.517 1.407,8.686 3,9.749c-0.39,1.109 -1.11,1.89 -1.5,2.999c1.75,-1.506 1.75,0.331 0,0.75c0.487,0.763 1.725,0.776 1.5,2.25c-1.828,-0.308 0.23,1.23 -1.5,4.499c2.655,-2.65 0.501,0.168 0,2.25c2.655,-2.65 0.501,0.167 0,2.249c2.655,-2.65 0.501,0.168 0,2.25c1.398,-2.631 2.265,0.048 0,0.75" style="fill:#fff;"/><path d="M42.144,-0l3,-0c3.158,3.952 -1.472,8.959 -5.25,10.498c2.33,-1.545 -2.539,-3.944 -1.499,0c-1.448,-0.303 -0.065,-3.434 -3,-2.249c1.246,-2.296 2.014,-0.866 4.499,-0.75c0.806,-3.045 0.644,-4.277 2.25,-7.499" style="fill:#231f20;"/></svg>